<svg width="25" height="24" viewBox="0 0 25 24" fill="none" xmlns="http://www.w3.org/2000/svg">
<path d="M5.04494 14.4263C5.13893 14.4282 5.21723 14.4972 5.23146 14.5894L5.40822 15.7261C5.63691 15.7977 5.85505 15.8939 6.06252 16.0142L7.00783 15.3618C7.04548 15.336 7.09129 15.3241 7.13673 15.3286C7.18223 15.3332 7.22501 15.3544 7.25685 15.3872L7.99025 16.1499C8.05515 16.2176 8.06194 16.3217 8.00685 16.397L7.32423 17.3296C7.43443 17.5402 7.52113 17.7608 7.58302 17.9907L8.71681 18.1997C8.76152 18.2083 8.80231 18.2318 8.83107 18.2671C8.85972 18.3023 8.8746 18.3467 8.87404 18.3921L8.85353 19.4507C8.85232 19.4959 8.83546 19.5397 8.80568 19.5737C8.77594 19.6077 8.73498 19.6301 8.69044 19.6372L7.54787 19.8149C7.47752 20.0416 7.38211 20.2597 7.26369 20.4653L7.91896 21.4136C7.94475 21.4512 7.95572 21.4971 7.95119 21.5425C7.94664 21.588 7.92637 21.6308 7.89357 21.6626L7.1299 22.396C7.0973 22.4269 7.05463 22.4456 7.00978 22.4487C6.96484 22.4518 6.92041 22.4389 6.8838 22.4126L5.95216 21.731C5.74109 21.843 5.51878 21.9309 5.28615 21.9946L5.06349 23.1245C5.05446 23.1687 5.03029 23.2085 4.99513 23.2368C4.9599 23.2651 4.91533 23.2805 4.87013 23.2798L3.81154 23.2583C3.76627 23.2571 3.7225 23.2404 3.68849 23.2104C3.65446 23.1804 3.63191 23.1391 3.62502 23.0942L3.459 21.9624C3.23049 21.8908 3.01058 21.7943 2.80275 21.6753L1.85255 22.313C1.81501 22.3381 1.76953 22.3499 1.72462 22.3452C1.67962 22.3405 1.63706 22.32 1.60548 22.2876L0.872086 21.5239C0.840832 21.4909 0.822101 21.4472 0.819351 21.4019C0.816652 21.3565 0.829478 21.3114 0.856461 21.2749L1.53712 20.3618C1.4252 20.1482 1.33662 19.9226 1.27345 19.6899L0.155289 19.4692C0.111126 19.4603 0.0712901 19.4359 0.042984 19.4009C0.0147202 19.3658 -0.000524313 19.3219 1.52588e-05 19.2769L0.0205231 18.2183C0.0223748 18.1242 0.0928513 18.0454 0.185562 18.0317L1.31252 17.8667C1.38457 17.6357 1.48055 17.4155 1.60158 17.2065L0.964859 16.2573C0.939953 16.2197 0.928786 16.1743 0.933609 16.1294C0.938455 16.0846 0.958933 16.0427 0.991226 16.0112L1.75392 15.2778C1.82163 15.2127 1.92766 15.2059 2.00294 15.2622L2.91896 15.9448C3.13128 15.8349 3.35502 15.748 3.58595 15.686L3.79298 14.563C3.80147 14.5182 3.82506 14.4776 3.86037 14.4487C3.89578 14.4198 3.94065 14.405 3.98634 14.4058L5.04494 14.4263ZM20.8067 11.0161C21.0141 11.0205 21.191 11.1547 21.2569 11.3433L21.2783 11.4282V11.4292L21.4258 12.3892C21.5536 12.4364 21.6783 12.4913 21.7998 12.5532L22.5957 12.0044C22.6906 11.9387 22.806 11.9091 22.9209 11.9204L23.0059 11.937C23.0882 11.9603 23.1635 12.0046 23.2236 12.0669L23.958 12.8306C24.0175 12.8925 24.0588 12.9689 24.0791 13.0513L24.0928 13.1362L24.0908 13.2212C24.0816 13.3056 24.0499 13.3873 23.999 13.4565L23.9981 13.4556L23.4209 14.2437C23.4768 14.3655 23.5265 14.4903 23.5684 14.6177L24.5244 14.7944C24.6094 14.8102 24.6891 14.8482 24.7539 14.9038L24.8145 14.9663L24.8633 15.0376C24.9046 15.1123 24.9256 15.1974 24.9238 15.2837L24.9024 16.3423C24.8999 16.4565 24.8574 16.5658 24.7822 16.6519C24.7068 16.738 24.6034 16.7955 24.4902 16.813L23.5225 16.9634C23.4762 17.0889 23.4228 17.2113 23.3623 17.3306L23.916 18.1304H23.9151C23.9811 18.2256 24.0106 18.3413 23.999 18.4565C23.9875 18.5716 23.9349 18.6782 23.8516 18.7583L23.0889 19.4927C23.0065 19.5719 22.8992 19.6205 22.7852 19.6284C22.6709 19.6362 22.5564 19.6032 22.4639 19.5356V19.5347L21.6768 18.9585C21.5528 19.016 21.4257 19.067 21.2959 19.1099L21.1074 20.0659L21.1065 20.0669C21.0841 20.1789 21.0236 20.2795 20.9346 20.3511C20.8454 20.4226 20.7334 20.4609 20.6192 20.4585L19.5625 20.438C19.4473 20.4358 19.3355 20.3931 19.249 20.3169C19.1629 20.2408 19.1065 20.1357 19.0899 20.022L18.9492 19.0669C18.8214 19.0195 18.6958 18.9656 18.5742 18.9038L17.7715 19.4438C17.6765 19.5074 17.5619 19.5352 17.4483 19.5229C17.3344 19.5106 17.2287 19.4581 17.1494 19.3755V19.3765L16.4131 18.6108C16.3349 18.5279 16.2876 18.4199 16.2803 18.3062C16.2731 18.1924 16.306 18.079 16.3731 17.9868L16.375 17.9839L16.9483 17.2153C16.8902 17.0898 16.8398 16.9601 16.7969 16.8286L15.8526 16.6431V16.6421C15.7407 16.6198 15.64 16.5599 15.5684 16.4712C15.4966 16.3821 15.4577 16.2692 15.46 16.1548L15.4805 15.0981C15.4852 14.8601 15.6617 14.6588 15.8985 14.6245L16.8457 14.4858C16.8939 14.3564 16.9499 14.2299 17.0127 14.1069L16.4756 13.3062V13.3052C16.4122 13.2103 16.3833 13.0964 16.3955 12.9829C16.4079 12.8693 16.4596 12.7623 16.542 12.6831H16.543L17.3067 11.9507C17.3896 11.8711 17.4986 11.8232 17.6133 11.8159L17.6992 11.8188C17.7557 11.8253 17.8105 11.8413 17.8613 11.8667L17.9346 11.9106L18.708 12.4858C18.8307 12.4299 18.9564 12.3808 19.085 12.3394L19.2588 11.394L19.2822 11.311C19.3124 11.231 19.3636 11.1596 19.4307 11.105L19.502 11.0571C19.5768 11.0156 19.6615 10.9938 19.7481 10.9956L20.8067 11.0161ZM4.46388 17.4956C4.10664 17.4886 3.76058 17.623 3.50294 17.8706C3.24532 18.1183 3.09692 18.4586 3.08986 18.8159C3.08638 18.9928 3.11723 19.1688 3.18166 19.3335C3.24615 19.4983 3.34318 19.6493 3.46584 19.7769C3.58839 19.9042 3.73456 20.0068 3.8965 20.0776C4.05856 20.1485 4.23332 20.1864 4.41017 20.1899C4.58705 20.1934 4.76299 20.1616 4.92775 20.0972C5.09255 20.0327 5.24353 19.9366 5.37111 19.814C5.49863 19.6913 5.60098 19.5444 5.67189 19.3823C5.74271 19.2203 5.78071 19.0455 5.78419 18.8687C5.79112 18.5115 5.65583 18.1662 5.40822 17.9087C5.16061 17.6512 4.82105 17.5027 4.46388 17.4956ZM19.6319 12.6245L19.5977 12.8081L19.417 12.856C19.2059 12.9119 19.0045 12.9901 18.8125 13.0903L18.6485 13.1763L18.499 13.0659L17.6524 12.4351L17.0117 13.0493L17.6006 13.9272L17.7031 14.0796L17.6113 14.2378C17.5012 14.4284 17.4138 14.6292 17.3477 14.8394L17.291 15.0161L17.1094 15.0425L16.0694 15.1938L16.0518 16.0815L17.085 16.2856L17.2647 16.3218L17.3125 16.4985C17.3697 16.7103 17.4502 16.9159 17.5527 17.1099L17.6397 17.2729L17.5283 17.4224L16.8985 18.2661L17.5137 18.9058L18.3936 18.3159L18.5459 18.2134L18.7041 18.3052C18.8457 18.3868 18.9946 18.4561 19.1475 18.5132L19.3027 18.5659L19.4795 18.6216L19.5069 18.8042L19.6602 19.8511L20.5459 19.8687L20.752 18.8228L20.7881 18.6431L20.9639 18.5952C21.1737 18.538 21.3772 18.4578 21.5694 18.356L21.7324 18.269L21.8809 18.3784L22.7422 19.0093L23.3819 18.3931L22.7754 17.5171L22.6699 17.3638L22.7637 17.2026C22.8715 17.0161 22.9568 16.8192 23.0205 16.6128L23.0752 16.437L23.2569 16.4087L24.3154 16.2446L24.333 15.3579L23.2852 15.1655L23.0391 15.1206L23.043 14.9155C22.9871 14.72 22.9125 14.5315 22.8184 14.3511L22.7334 14.189L22.8418 14.0415L23.4736 13.1763L22.8604 12.5386L21.9854 13.1411L21.832 13.2466L21.6709 13.1538C21.4819 13.0443 21.2837 12.9575 21.0762 12.8931L20.9004 12.8374L20.8721 12.6567L20.709 11.604L19.8233 11.5864L19.6319 12.6245ZM12.3613 4.93311C12.6648 4.93022 12.9532 5.05876 13.1514 5.28662L15.3447 7.81104L17.8965 7.39014C18.4708 7.29555 19.0047 7.68547 19.0899 8.26123C19.1749 8.83708 18.7784 9.38115 18.2041 9.47607L15.0801 9.9917C14.7234 10.0505 14.3632 9.92167 14.1279 9.65088L12.3447 7.59814L9.32228 11.0874L12.0586 13.1978C12.2704 13.3613 12.4098 13.6017 12.4492 13.8687L13.0996 18.272C13.1846 18.8479 12.7882 19.391 12.2139 19.4858C11.6397 19.5805 11.1048 19.1913 11.0195 18.6157L10.4307 14.6255L7.14845 12.0952C6.92074 11.9194 6.77649 11.6549 6.75002 11.3657C6.72372 11.0766 6.81745 10.787 7.0088 10.5659L11.5664 5.30225L11.6465 5.22021C11.8407 5.03911 12.0958 4.93585 12.3613 4.93311ZM20.2236 14.0854C20.659 14.0941 21.0732 14.2755 21.375 14.5894C21.6768 14.9033 21.8416 15.3248 21.833 15.7603C21.8243 16.1955 21.643 16.6099 21.3291 16.9116C21.0153 17.2132 20.5944 17.3771 20.1592 17.3687C19.7239 17.36 19.3096 17.1795 19.0078 16.8657C18.706 16.5518 18.5403 16.1302 18.5488 15.6948C18.5575 15.2596 18.739 14.8452 19.0527 14.5435C19.3667 14.2417 19.7882 14.0769 20.2236 14.0854ZM20.2119 14.6743C19.9328 14.6689 19.6632 14.7749 19.4619 14.9683C19.2607 15.1618 19.1443 15.4274 19.1387 15.7065C19.1333 15.9857 19.2392 16.2553 19.4326 16.4565C19.6262 16.6578 19.8917 16.7743 20.1709 16.7798C20.45 16.7852 20.7206 16.6793 20.9219 16.4858C21.1227 16.2924 21.2395 16.0273 21.2451 15.7485C21.2506 15.4694 21.1445 15.1989 20.9512 14.9976C20.7576 14.7962 20.4912 14.6798 20.2119 14.6743ZM14.8887 0.00341797C15.386 -0.025828 15.8717 0.128292 16.2617 0.429199C16.7053 0.771558 16.9918 1.27655 17.0733 1.82764C17.1545 2.37873 17.0269 2.95147 16.7031 3.42041C16.3778 3.89156 15.8788 4.22075 15.3086 4.31494C14.7383 4.40905 14.1665 4.25659 13.7207 3.9126C13.2775 3.57033 12.9917 3.06588 12.9102 2.51514C12.8288 1.964 12.9556 1.3904 13.2793 0.921387C13.6047 0.45027 14.1047 0.12205 14.6748 0.027832L14.8887 0.00341797ZM14.9902 2.17139C14.9907 2.17405 14.9917 2.17672 14.9922 2.1792C14.992 2.17671 14.9935 2.17401 14.9932 2.17139C14.9928 2.16848 14.9899 2.16528 14.9893 2.1626C14.9895 2.16524 14.9899 2.16857 14.9902 2.17139Z" fill="white"/>
</svg>
