<svg width="108" height="108" viewBox="0 0 108 108" fill="none" xmlns="http://www.w3.org/2000/svg">
<path fill-rule="evenodd" clip-rule="evenodd" d="M88.6571 35.9104L102.535 35.6118C103.083 35.6041 103.616 35.7896 104.041 36.1358C104.466 36.482 104.755 36.9668 104.858 37.5051L107.184 50.0375C107.28 50.5731 107.185 51.1252 106.916 51.5983C106.648 52.0714 106.222 52.4357 105.713 52.6282L92.6711 57.502C92.3921 60.3451 91.7987 63.1485 90.9018 65.8609L100.929 75.4527C101.326 75.8345 101.575 76.3442 101.632 76.8917C101.689 77.4393 101.55 77.9893 101.241 78.4445L94.0208 88.9468C93.7114 89.3938 93.2557 89.7187 92.7323 89.8653C92.2088 90.0119 91.6507 89.9711 91.1541 89.7499L78.5146 83.9771C76.298 85.8116 73.8954 87.387 71.307 88.7032L71.419 102.561C71.4203 103.106 71.2313 103.633 70.8847 104.053C70.538 104.472 70.0556 104.757 69.5209 104.859L56.9884 107.185C56.45 107.282 55.8946 107.186 55.4193 106.915C54.9441 106.644 54.5793 106.215 54.3887 105.702L49.6822 92.7573C46.8114 92.4679 43.9803 91.8686 41.2386 90.9698L31.5828 100.799C31.2003 101.187 30.694 101.429 30.1518 101.482C29.6097 101.536 29.0659 101.398 28.6148 101.093L18.1047 93.8672C17.6559 93.5536 17.3318 93.0921 17.1891 92.5635C17.0464 92.0349 17.0942 91.473 17.3242 90.9761L23.1306 78.554C21.2911 76.3068 19.7019 73.8658 18.3911 71.2743L4.66103 71.3828C4.11795 71.3842 3.59141 71.196 3.17225 70.8507C2.75309 70.5053 2.4676 70.0246 2.36501 69.4913L0.0390745 56.9588C-0.167621 55.8451 0.461876 54.7456 1.52188 54.3591L14.4099 49.6766C14.6985 46.7768 15.3028 43.9471 16.2228 41.1876L6.40893 31.5426C6.02359 31.1594 5.78418 30.6536 5.73204 30.1127C5.6799 29.5718 5.81831 29.0296 6.12337 28.5799L13.3368 18.0788C13.977 17.1467 15.2023 16.8109 16.2267 17.2917L28.6918 23.1105C30.9292 21.2974 33.3561 19.7314 35.93 18.4397L35.6361 4.69655C35.6267 4.14645 35.8121 3.61075 36.1595 3.18415C36.507 2.75756 36.994 2.46753 37.5346 2.36534L50.0671 0.0394004C51.1808 -0.167295 52.2725 0.456867 52.6643 1.50911L57.5051 14.4829C60.3779 14.772 63.1845 15.3738 65.9249 16.2884L75.4913 6.30612C75.873 5.90946 76.3828 5.66063 76.9303 5.60366C77.4779 5.54669 78.0279 5.68525 78.4831 5.99483L88.9842 13.2082C89.9162 13.8485 90.2496 15.0606 89.782 16.0826L83.9996 28.7442C85.8115 30.9606 87.3684 33.3485 88.6571 35.9104ZM37.6771 56.5538C38.0659 58.6486 38.8635 60.6464 40.0244 62.433C41.1852 64.2197 42.6867 65.7601 44.4429 66.9665C46.1991 68.1729 48.1757 69.0215 50.2599 69.464C52.3441 69.9065 54.495 69.9341 56.5899 69.5453C58.6848 69.1565 60.6826 68.3589 62.4692 67.1981C64.2558 66.0372 65.7963 64.5358 67.0027 62.7796C68.209 61.0233 69.0577 59.0467 69.5002 56.9625C69.9426 54.8783 69.9703 52.7274 69.5815 50.6325C68.7963 46.4017 66.3626 42.6562 62.8157 40.2198C59.2689 37.7834 54.8995 36.8558 50.6687 37.641C46.4379 38.4262 42.6923 40.8599 40.2559 44.4067C37.8195 47.9536 36.8919 52.323 37.6771 56.5538Z" fill="white"/>
</svg>
