<svg width="115" height="115" viewBox="0 0 115 115" fill="none" xmlns="http://www.w3.org/2000/svg">
<path d="M92.2051 39.4562L106.079 39.1583C106.629 39.1472 107.164 39.3318 107.59 39.6791C108.016 40.0264 108.305 40.5139 108.405 41.0544L110.73 53.5837C110.829 54.1199 110.736 54.6739 110.467 55.1483C110.198 55.6226 109.771 55.9869 109.26 56.177L96.2126 61.049C95.9378 63.9047 95.3489 66.691 94.446 69.4079L104.474 78.997C104.873 79.3774 105.124 79.8878 105.18 80.4364C105.237 80.9851 105.096 81.5359 104.783 81.99L97.567 92.4953C97.2591 92.9456 96.8021 93.2728 96.2765 93.4193C95.7509 93.5658 95.1906 93.5221 94.6941 93.2959L82.0569 87.5235C79.8363 89.3576 77.4197 90.9406 74.8513 92.2438L74.9668 106.109C74.971 106.654 74.7827 107.184 74.4349 107.604C74.0871 108.024 73.6022 108.308 73.0656 108.406L60.5432 110.73C60.0047 110.831 59.4481 110.737 58.9726 110.465C58.4971 110.193 58.1337 109.761 57.9473 109.246L53.2397 96.3054C50.3653 96.0218 47.5311 95.4205 44.7892 94.5124L35.1358 104.35C34.7535 104.739 34.2461 104.981 33.703 105.033C33.1599 105.084 32.6159 104.943 32.1668 104.633L21.6546 97.4182C21.2068 97.1041 20.8827 96.6435 20.7386 96.1158C20.5945 95.5882 20.6393 95.0267 20.8653 94.5286L26.6766 82.1011C24.8281 79.8586 23.2354 77.4169 21.9281 74.8213L8.20694 74.9318C7.66269 74.936 7.13432 74.7485 6.71449 74.4021C6.29465 74.0557 6.01015 73.5726 5.91087 73.0375L3.5855 60.5081C3.37799 59.39 4.00522 58.2905 5.0756 57.9039L17.9486 53.2233C18.2444 50.3251 18.8515 47.4945 19.77 44.7314L9.95645 35.088C9.56917 34.706 9.32867 34.1999 9.27706 33.6584C9.22545 33.1168 9.36604 32.5744 9.67419 32.1261L16.8987 21.6266C17.209 21.1743 17.6697 20.8467 18.1988 20.7022C18.7279 20.5577 19.2911 20.6055 19.7883 20.8373L32.2533 26.6561C34.4839 24.8349 36.8962 23.2788 39.4902 21.9878L39.1933 8.23616C39.1822 7.68666 39.3668 7.1511 39.7142 6.72515C40.0615 6.29919 40.5489 6.01057 41.0894 5.91084L53.6188 3.58547C54.7299 3.37926 55.8211 4.0008 56.2191 5.05461L61.0571 18.0357C63.9285 18.3172 66.7384 18.9162 69.4867 19.8326L79.0417 9.8547C79.4211 9.45453 79.9308 9.20281 80.4791 9.14476C81.0275 9.08671 81.5786 9.22614 82.0334 9.538L92.5386 16.7542C92.988 17.0633 93.3141 17.521 93.4592 18.0467C93.6044 18.5725 93.5595 19.1326 93.3323 19.6285L87.5498 32.2892C89.359 34.5076 90.9104 36.8942 92.2038 39.4493L92.2051 39.4562ZM41.2148 60.1024C42.0001 64.3335 44.434 68.0794 47.9811 70.516C51.5283 72.9526 55.8981 73.8803 60.1292 73.095C64.3603 72.3098 68.1062 69.8759 70.5428 66.3287C72.9794 62.7816 73.9071 58.4118 73.1218 54.1807C72.3365 49.9496 69.9026 46.2037 66.3555 43.7671C62.8084 41.3305 58.4386 40.4028 54.2075 41.1881C49.9763 41.9733 46.2304 44.4073 43.7939 47.9544C41.3573 51.5015 40.4296 55.8713 41.2148 60.1024Z" stroke="white" stroke-width="7.09142"/>
</svg>
