<svg width="13" height="13" viewBox="0 0 13 13" fill="none" xmlns="http://www.w3.org/2000/svg">
<path d="M5.99338 2.00189C5.72791 2.00189 5.47332 1.89644 5.2856 1.70872C5.09789 1.52101 4.99243 1.26641 4.99243 1.00095C4.99243 0.735479 5.09789 0.480884 5.2856 0.29317C5.47332 0.105456 5.72791 0 5.99338 0H11.9991C12.2645 0 12.5191 0.105456 12.7068 0.29317C12.8945 0.480884 13 0.735479 13 1.00095V7.00662C13 7.27209 12.8945 7.52669 12.7068 7.7144C12.5191 7.90211 12.2645 8.00757 11.9991 8.00757C11.7336 8.00757 11.479 7.90211 11.2913 7.7144C11.1036 7.52669 10.9981 7.27209 10.9981 7.00662V3.41723L1.69631 12.719C1.50753 12.9014 1.25469 13.0022 0.992249 13C0.729804 12.9977 0.478754 12.8924 0.29317 12.7068C0.107586 12.5212 0.00231841 12.2702 3.78385e-05 12.0078C-0.00224274 11.7453 0.0986468 11.4925 0.280977 11.3037L9.58277 2.00189H5.99338Z" fill="white"/>
</svg>
