<svg width="140" height="227" viewBox="0 0 140 227" fill="none" xmlns="http://www.w3.org/2000/svg">
<path d="M79.485 214.036L61.6946 166.489L12.6916 144.171L54.3349 74.3861L91.4512 101.151L127.111 87.8084M64.7656 29.8307C65.9451 32.9832 68.3287 35.5381 71.392 36.9332C74.4553 38.3283 77.9473 38.4494 81.0999 37.2698C84.2525 36.0902 86.8074 33.7066 88.2025 30.6433C89.5976 27.58 89.7186 24.088 88.5391 20.9355C87.3595 17.7829 84.9759 15.228 81.9126 13.8329C78.8493 12.4378 75.3573 12.3167 72.2047 13.4963C69.0521 14.6759 66.4973 17.0595 65.1022 20.1228C63.7071 23.1861 63.586 26.6781 64.7656 29.8307Z" stroke="white" stroke-width="25.3831" stroke-linecap="round" stroke-linejoin="round"/>
</svg>
