<svg width="936" height="269" viewBox="0 0 936 269" fill="none" xmlns="http://www.w3.org/2000/svg">
<path d="M12.9395 159.051C12.991 160.031 12.7039 160.869 12.0782 161.564C11.4738 162.258 10.6709 162.631 9.66963 162.684C8.66834 162.736 7.82014 162.45 7.12501 161.824C6.45119 161.197 6.08853 160.394 6.03704 159.414C5.98443 158.413 6.26089 157.576 6.86643 156.903C7.49215 156.208 8.30565 155.834 9.30694 155.781C10.3082 155.729 11.1458 156.016 11.8196 156.643C12.5136 157.247 12.8869 158.05 12.9395 159.051ZM25.8333 147.165L42.9182 146.843L42.9979 151.066L30.936 151.294L31.0283 156.189L42.0983 155.98L42.1719 159.883L31.1019 160.092L31.2075 165.691L43.5253 165.459L43.6049 169.682L26.264 170.009L25.8333 147.165ZM46.9262 146.84L51.9179 146.897L61.2765 162.334L61.3405 162.335L61.5172 147.008L66.2209 147.062L65.9575 169.909L60.9338 169.851L51.6068 154.446L51.5428 154.446L51.3664 169.741L46.6628 169.686L46.9262 146.84ZM86.6302 168.131C85.686 169.244 84.6604 170.011 83.5535 170.434C82.4474 170.835 81.3402 171.013 80.2319 170.965C78.4841 170.891 76.9196 170.526 75.5383 169.869C74.1791 169.192 73.0427 168.3 72.1289 167.194C71.2151 166.087 70.5328 164.809 70.082 163.359C69.6322 161.888 69.4426 160.321 69.5133 158.659C69.5859 156.954 69.9088 155.387 70.482 153.96C71.0561 152.511 71.8458 151.263 72.8512 150.217C73.8566 149.171 75.0651 148.368 76.4768 147.809C77.9099 147.251 79.5002 147.009 81.248 147.083C82.4203 147.133 83.5422 147.362 84.6138 147.771C85.7076 148.159 86.677 148.713 87.5218 149.432C88.388 150.152 89.0875 151.025 89.6204 152.051C90.1532 153.078 90.4559 154.244 90.5285 155.549L85.7328 155.345C85.4889 154.054 84.9542 153.07 84.1288 152.394C83.3035 151.719 82.2833 151.355 81.0684 151.303C79.9388 151.255 78.9701 151.438 78.1625 151.852C77.3557 152.245 76.6914 152.804 76.1694 153.529C75.6483 154.233 75.2506 155.049 74.9763 155.976C74.7232 156.905 74.5754 157.87 74.5328 158.872C74.492 159.831 74.5587 160.774 74.7328 161.699C74.9292 162.604 75.257 163.43 75.7164 164.175C76.1758 164.921 76.7903 165.534 77.5599 166.015C78.3304 166.475 79.2804 166.729 80.4101 166.777C82.0726 166.848 83.3691 166.487 84.2997 165.694C85.2524 164.88 85.8374 163.677 86.0546 162.085L81.0032 161.87L81.1624 158.129L90.7537 158.537L90.2286 170.878L87.0315 170.742L86.6302 168.131ZM95.4988 148.285L100.512 148.608L99.0426 171.409L94.029 171.086L95.4988 148.285ZM105.148 148.955L110.122 149.378L118.323 165.46L118.387 165.466L119.687 150.193L124.374 150.592L122.436 173.358L117.43 172.931L109.258 156.884L109.194 156.879L107.896 172.12L103.209 171.72L105.148 148.955ZM129.074 151.054L146.056 152.952L145.587 157.15L133.598 155.81L133.054 160.676L144.058 161.905L143.624 165.785L132.621 164.556L131.999 170.121L144.243 171.489L143.774 175.687L126.537 173.761L129.074 151.054ZM149.961 153.445L166.893 155.75L166.323 159.935L154.369 158.308L153.709 163.159L164.679 164.653L164.153 168.521L153.182 167.027L152.427 172.576L164.634 174.238L164.064 178.423L146.879 176.084L149.961 153.445ZM174.105 167.348L179.538 168.229C180.675 168.413 181.569 168.299 182.219 167.885C182.87 167.472 183.287 166.697 183.471 165.56C183.649 164.465 183.493 163.629 183.002 163.052C182.516 162.455 181.704 162.064 180.567 161.88L175.134 160.999L174.105 167.348ZM170.799 156.342L182.96 158.312C183.971 158.476 184.849 158.792 185.595 159.258C186.365 159.707 186.988 160.262 187.465 160.923C187.962 161.587 188.297 162.322 188.469 163.128C188.665 163.916 188.693 164.742 188.554 165.605C188.339 166.932 187.868 168.033 187.143 168.91C186.438 169.79 185.413 170.38 184.068 170.681L184.058 170.744C184.641 171.012 185.104 171.357 185.446 171.78C185.791 172.181 186.051 172.645 186.225 173.17C186.403 173.674 186.498 174.219 186.512 174.805C186.546 175.394 186.538 175.976 186.488 176.552C186.451 176.913 186.404 177.338 186.346 177.825C186.289 178.313 186.24 178.813 186.2 179.325C186.182 179.841 186.188 180.339 186.218 180.819C186.272 181.282 186.39 181.69 186.57 182.044L181.611 181.24C181.453 180.48 181.423 179.599 181.52 178.599C181.618 177.599 181.676 176.636 181.697 175.71C181.719 174.504 181.501 173.582 181.043 172.946C180.584 172.31 179.733 171.891 178.491 171.69L173.531 170.886L172.103 179.699L167.144 178.896L170.799 156.342ZM193.78 160.106L198.725 160.994L194.686 183.482L189.741 182.594L193.78 160.106ZM203.262 161.851L208.159 162.821L214.535 179.71L214.597 179.722L217.576 164.686L222.19 165.6L217.75 188.013L212.822 187.036L206.472 170.185L206.409 170.173L203.437 185.177L198.822 184.263L203.262 161.851ZM238.488 189.936C237.362 190.865 236.217 191.44 235.053 191.661C233.894 191.861 232.773 191.84 231.69 191.598C229.983 191.217 228.507 190.582 227.263 189.692C226.044 188.786 225.083 187.708 224.378 186.458C223.674 185.207 223.228 183.829 223.039 182.322C222.856 180.795 222.945 179.219 223.308 177.595C223.68 175.93 224.274 174.445 225.09 173.141C225.91 171.815 226.907 170.727 228.081 169.874C229.255 169.021 230.586 168.444 232.075 168.143C233.583 167.846 235.192 167.888 236.899 168.269C238.044 168.525 239.108 168.948 240.091 169.539C241.099 170.114 241.956 170.83 242.661 171.687C243.386 172.548 243.921 173.531 244.265 174.635C244.608 175.739 244.701 176.94 244.542 178.238L239.858 177.192C239.845 175.878 239.492 174.815 238.799 174.005C238.105 173.194 237.165 172.656 235.978 172.391C234.875 172.145 233.889 172.154 233.021 172.42C232.158 172.664 231.405 173.097 230.764 173.719C230.127 174.32 229.592 175.053 229.158 175.918C228.745 176.787 228.43 177.712 228.211 178.69C228.002 179.627 227.902 180.566 227.91 181.508C227.944 182.434 228.121 183.304 228.442 184.119C228.763 184.934 229.259 185.646 229.932 186.255C230.609 186.843 231.5 187.261 232.603 187.507C234.227 187.87 235.567 187.743 236.623 187.126C237.704 186.493 238.492 185.412 238.987 183.883L234.052 182.781L234.868 179.127L244.237 181.219L241.546 193.274L238.422 192.577L238.488 189.936ZM263.412 186.824C263.173 187.776 262.652 188.492 261.849 188.972C261.068 189.458 260.191 189.579 259.218 189.334C258.246 189.09 257.519 188.567 257.039 187.764C256.579 186.967 256.469 186.093 256.708 185.141C256.952 184.168 257.462 183.45 258.239 182.985C259.042 182.504 259.929 182.386 260.901 182.631C261.874 182.875 262.59 183.396 263.05 184.193C263.535 184.975 263.656 185.852 263.412 186.824ZM281.513 189.432L286.417 190.79C287.28 191.029 288.046 191.02 288.715 190.763C289.384 190.505 289.847 189.914 290.103 188.989C290.246 188.475 290.27 188.028 290.176 187.648C290.082 187.267 289.907 186.942 289.65 186.672C289.392 186.401 289.067 186.178 288.673 186.003C288.305 185.812 287.905 185.657 287.473 185.537L282.94 184.282L281.513 189.432ZM279.141 179.178L289.502 182.049C290.551 182.339 291.481 182.696 292.293 183.121C293.106 183.545 293.76 184.058 294.258 184.661C294.76 185.243 295.08 185.929 295.215 186.719C295.371 187.515 295.306 188.427 295.021 189.455C294.714 190.565 294.201 191.419 293.482 192.017C292.783 192.62 291.875 193.022 290.757 193.221C292.006 193.988 292.823 194.955 293.207 196.124C293.618 197.279 293.632 198.544 293.251 199.922C292.943 201.032 292.46 201.939 291.8 202.641C291.146 203.324 290.378 203.819 289.496 204.128C288.634 204.443 287.696 204.592 286.682 204.577C285.688 204.568 284.698 204.426 283.711 204.153L273.041 201.197L279.141 179.178ZM278.925 198.776L284.106 200.211C284.579 200.342 285.042 200.426 285.497 200.464C285.957 200.48 286.38 200.432 286.766 200.317C287.158 200.182 287.497 199.955 287.785 199.636C288.093 199.323 288.327 198.879 288.486 198.303C288.799 197.172 288.703 196.282 288.196 195.633C287.696 194.963 286.921 194.483 285.873 194.192L280.599 192.731L278.925 198.776ZM315.605 204.395C314.73 207.362 313.249 209.328 311.163 210.291C309.083 211.235 306.58 211.275 303.654 210.412C300.688 209.536 298.597 208.141 297.383 206.226C296.189 204.316 296.032 201.868 296.914 198.881L300.934 185.254L305.753 186.675L301.732 200.302C301.557 200.896 301.436 201.494 301.37 202.097C301.303 202.7 301.367 203.275 301.562 203.822C301.762 204.348 302.107 204.839 302.595 205.295C303.11 205.736 303.858 206.101 304.841 206.391C306.559 206.898 307.858 206.87 308.736 206.306C309.62 205.721 310.304 204.611 310.787 202.974L314.807 189.346L319.626 190.768L315.605 204.395ZM322.829 207.528C322.624 208.268 322.584 208.932 322.709 209.52C322.834 210.108 323.067 210.626 323.407 211.075C323.774 211.508 324.233 211.89 324.784 212.22C325.34 212.528 325.937 212.771 326.575 212.948C327.006 213.067 327.477 213.164 327.988 213.239C328.504 213.294 329.007 213.278 329.495 213.192C329.984 213.105 330.421 212.927 330.805 212.658C331.195 212.367 331.467 211.944 331.621 211.389C331.786 210.793 331.725 210.256 331.436 209.778C331.169 209.305 330.761 208.86 330.212 208.443C329.664 208.025 329.024 207.616 328.294 207.215C327.564 206.813 326.829 206.389 326.09 205.94C325.325 205.507 324.591 205.039 323.89 204.534C323.194 204.01 322.603 203.426 322.117 202.782C321.631 202.138 321.289 201.413 321.092 200.606C320.921 199.784 320.975 198.869 321.254 197.862C321.567 196.731 322.074 195.82 322.774 195.128C323.501 194.422 324.332 193.899 325.267 193.56C326.202 193.221 327.2 193.055 328.261 193.061C329.322 193.067 330.345 193.206 331.332 193.479C332.484 193.798 333.547 194.236 334.521 194.794C335.522 195.336 336.354 196.009 337.017 196.813C337.68 197.616 338.123 198.535 338.345 199.571C338.594 200.592 338.542 201.739 338.189 203.014L333.502 201.716C333.643 201.047 333.649 200.462 333.522 199.962C333.416 199.468 333.201 199.043 332.879 198.689C332.556 198.334 332.152 198.034 331.667 197.789C331.202 197.549 330.671 197.347 330.075 197.182C329.684 197.074 329.282 197.007 328.869 196.981C328.455 196.955 328.056 196.999 327.67 197.114C327.305 197.234 326.977 197.42 326.686 197.672C326.395 197.923 326.184 198.285 326.053 198.758C325.933 199.19 325.919 199.562 326.009 199.875C326.1 200.188 326.35 200.523 326.76 200.88C327.191 201.243 327.797 201.654 328.577 202.113C329.378 202.578 330.419 203.176 331.7 203.907C332.088 204.103 332.611 204.414 333.268 204.839C333.951 205.25 334.587 205.791 335.176 206.463C335.765 207.135 336.205 207.943 336.497 208.887C336.815 209.817 336.804 210.898 336.462 212.132C336.184 213.139 335.729 214.021 335.1 214.776C334.47 215.531 333.676 216.12 332.719 216.541C331.787 216.947 330.697 217.166 329.449 217.196C328.222 217.233 326.857 217.043 325.357 216.628C324.144 216.292 323.004 215.811 321.938 215.184C320.887 214.583 320.007 213.841 319.3 212.959C318.613 212.083 318.149 211.08 317.908 209.951C317.667 208.822 317.745 207.582 318.141 206.23L322.829 207.528ZM343.41 197.342L348.279 198.581L342.643 220.723L337.774 219.484L343.41 197.342ZM352.3 199.553L357.166 200.667L363.04 217.737L363.102 217.751L366.524 202.81L371.109 203.86L366.009 226.132L361.112 225.01L355.262 207.979L355.2 207.964L351.785 222.874L347.2 221.824L352.3 199.553ZM375.061 204.696L391.836 207.952L391.031 212.099L379.188 209.8L378.255 214.606L389.124 216.716L388.38 220.549L377.511 218.439L376.444 223.936L388.538 226.284L387.733 230.43L370.707 227.126L375.061 204.696ZM396.037 224.128C395.916 224.886 395.949 225.55 396.139 226.121C396.328 226.692 396.617 227.181 397.005 227.589C397.418 227.979 397.916 228.308 398.5 228.574C399.087 228.82 399.707 228.995 400.36 229.1C400.802 229.171 401.281 229.215 401.797 229.233C402.316 229.23 402.814 229.158 403.29 229.019C403.766 228.879 404.18 228.654 404.533 228.343C404.888 228.011 405.112 227.561 405.203 226.992C405.301 226.382 405.181 225.854 404.841 225.411C404.523 224.971 404.068 224.574 403.477 224.22C402.885 223.866 402.205 223.529 401.435 223.211C400.665 222.893 399.888 222.553 399.103 222.189C398.295 221.843 397.514 221.459 396.761 221.035C396.011 220.591 395.359 220.076 394.805 219.49C394.251 218.904 393.831 218.221 393.546 217.44C393.285 216.642 393.237 215.727 393.403 214.695C393.589 213.537 393.992 212.575 394.611 211.81C395.255 211.028 396.023 210.416 396.915 209.976C397.807 209.536 398.78 209.26 399.835 209.148C400.89 209.037 401.923 209.062 402.934 209.224C404.114 209.414 405.219 209.731 406.249 210.178C407.304 210.606 408.205 211.183 408.953 211.908C409.701 212.633 410.243 213.498 410.578 214.502C410.939 215.489 411.014 216.636 410.804 217.942L406.002 217.171C406.068 216.49 406.01 215.908 405.828 215.425C405.667 214.946 405.407 214.547 405.048 214.23C404.688 213.913 404.253 213.66 403.744 213.47C403.255 213.284 402.705 213.142 402.094 213.043C401.694 212.979 401.287 212.957 400.873 212.977C400.46 212.997 400.067 213.085 399.697 213.242C399.347 213.402 399.041 213.623 398.78 213.905C398.519 214.187 398.349 214.571 398.271 215.055C398.2 215.497 398.227 215.869 398.352 216.17C398.476 216.471 398.762 216.776 399.209 217.085C399.678 217.398 400.325 217.74 401.152 218.11C401.999 218.484 403.1 218.963 404.454 219.547C404.861 219.699 405.415 219.95 406.115 220.3C406.84 220.633 407.532 221.1 408.191 221.703C408.851 222.306 409.378 223.06 409.772 223.966C410.192 224.855 410.3 225.931 410.097 227.194C409.931 228.227 409.577 229.153 409.035 229.973C408.493 230.794 407.769 231.466 406.864 231.991C405.983 232.498 404.924 232.835 403.687 233.004C402.471 233.176 401.095 233.139 399.557 232.892C398.314 232.693 397.128 232.34 396 231.835C394.888 231.354 393.932 230.715 393.131 229.916C392.351 229.121 391.779 228.176 391.415 227.081C391.051 225.985 390.991 224.744 391.235 223.357L396.037 224.128ZM416.711 227.25C416.615 228.012 416.671 228.675 416.88 229.238C417.088 229.802 417.394 230.281 417.796 230.676C418.221 231.052 418.73 231.363 419.323 231.61C419.918 231.835 420.544 231.989 421.2 232.072C421.644 232.128 422.125 232.156 422.641 232.157C423.159 232.136 423.654 232.048 424.125 231.892C424.596 231.736 425.003 231.497 425.344 231.174C425.689 230.831 425.897 230.373 425.969 229.802C426.046 229.188 425.907 228.665 425.553 228.233C425.22 227.805 424.752 227.423 424.149 227.089C423.546 226.755 422.854 226.442 422.074 226.151C421.294 225.859 420.505 225.545 419.709 225.208C418.889 224.89 418.096 224.532 417.329 224.135C416.564 223.716 415.895 223.223 415.321 222.656C414.748 222.09 414.305 221.421 413.993 220.651C413.706 219.862 413.627 218.949 413.758 217.912C413.904 216.748 414.274 215.773 414.867 214.988C415.485 214.184 416.231 213.547 417.108 213.076C417.984 212.606 418.947 212.297 419.998 212.15C421.048 212.003 422.082 211.993 423.098 212.121C424.283 212.27 425.398 212.55 426.443 212.961C427.512 213.354 428.432 213.899 429.204 214.599C429.976 215.298 430.547 216.144 430.917 217.136C431.31 218.11 431.424 219.254 431.259 220.566L426.433 219.959C426.476 219.276 426.399 218.696 426.2 218.22C426.024 217.746 425.75 217.357 425.38 217.052C425.01 216.748 424.567 216.509 424.051 216.337C423.556 216.167 423.002 216.044 422.388 215.966C421.986 215.916 421.578 215.907 421.166 215.941C420.753 215.976 420.364 216.077 419.998 216.246C419.654 216.418 419.356 216.649 419.105 216.94C418.853 217.231 418.697 217.62 418.635 218.107C418.579 218.551 418.619 218.921 418.754 219.218C418.888 219.514 419.184 219.81 419.642 220.104C420.121 220.401 420.779 220.72 421.618 221.062C422.477 221.407 423.594 221.848 424.967 222.386C425.379 222.524 425.941 222.756 426.653 223.082C427.388 223.39 428.096 223.834 428.775 224.414C429.455 224.994 430.007 225.73 430.433 226.622C430.882 227.496 431.026 228.567 430.866 229.837C430.736 230.875 430.414 231.812 429.9 232.651C429.386 233.489 428.685 234.186 427.798 234.741C426.935 235.277 425.888 235.651 424.658 235.861C423.448 236.075 422.071 236.084 420.526 235.89C419.277 235.733 418.08 235.421 416.935 234.954C415.808 234.511 414.831 233.904 414.003 233.134C413.197 232.366 412.593 231.44 412.191 230.358C411.79 229.275 411.688 228.037 411.885 226.642L416.711 227.25ZM450.236 226.948C450.155 227.926 449.757 228.718 449.043 229.322C448.351 229.928 447.505 230.19 446.506 230.107C445.506 230.024 444.705 229.625 444.1 228.911C443.517 228.199 443.266 227.354 443.348 226.376C443.431 225.377 443.817 224.585 444.508 224C445.222 223.396 446.078 223.135 447.078 223.218C448.077 223.301 448.868 223.699 449.451 224.411C450.057 225.103 450.319 225.949 450.236 226.948ZM478.682 224.62C478.618 224.042 478.445 223.512 478.164 223.032C477.883 222.531 477.526 222.091 477.091 221.712C476.657 221.333 476.155 221.038 475.587 220.825C475.04 220.591 474.458 220.463 473.839 220.441C472.71 220.399 471.742 220.588 470.937 221.007C470.132 221.404 469.471 221.967 468.954 222.695C468.437 223.402 468.044 224.221 467.775 225.15C467.528 226.08 467.386 227.046 467.349 228.048C467.314 229.008 467.386 229.95 467.566 230.874C467.767 231.778 468.1 232.601 468.564 233.344C469.028 234.087 469.646 234.697 470.418 235.173C471.192 235.629 472.143 235.877 473.273 235.918C474.808 235.974 476.019 235.549 476.906 234.642C477.815 233.736 478.393 232.519 478.641 230.991L483.502 231.169C483.321 232.593 482.944 233.87 482.369 235.002C481.794 236.134 481.054 237.089 480.15 237.867C479.247 238.645 478.201 239.226 477.013 239.609C475.825 239.993 474.527 240.159 473.12 240.107C471.372 240.043 469.805 239.687 468.42 239.039C467.057 238.37 465.915 237.485 464.995 236.384C464.074 235.283 463.384 234.009 462.925 232.562C462.466 231.093 462.267 229.528 462.328 227.865C462.391 226.159 462.704 224.591 463.269 223.16C463.834 221.708 464.617 220.455 465.616 219.403C466.615 218.351 467.819 217.541 469.227 216.974C470.657 216.407 472.246 216.155 473.994 216.219C475.252 216.265 476.428 216.49 477.524 216.893C478.64 217.297 479.623 217.866 480.471 218.602C481.342 219.317 482.046 220.196 482.584 221.241C483.122 222.285 483.442 223.471 483.543 224.798L478.682 224.62ZM491.058 228.625C491.068 229.585 491.184 230.522 491.406 231.437C491.65 232.331 492.021 233.138 492.519 233.858C493.017 234.579 493.663 235.159 494.457 235.599C495.25 236.018 496.212 236.221 497.343 236.21C498.473 236.198 499.431 235.975 500.216 235.541C501.001 235.085 501.635 234.492 502.118 233.762C502.602 233.031 502.946 232.217 503.15 231.319C503.375 230.4 503.483 229.46 503.474 228.5C503.463 227.497 503.336 226.528 503.092 225.591C502.87 224.655 502.509 223.827 502.011 223.106C501.513 222.365 500.867 221.784 500.074 221.366C499.28 220.926 498.318 220.711 497.187 220.723C496.056 220.734 495.099 220.968 494.314 221.424C493.529 221.858 492.895 222.451 492.412 223.203C491.928 223.933 491.574 224.769 491.349 225.71C491.145 226.65 491.048 227.622 491.058 228.625ZM486.034 228.675C486.017 226.969 486.257 225.387 486.755 223.932C487.252 222.455 487.975 221.167 488.924 220.07C489.873 218.972 491.038 218.107 492.418 217.474C493.82 216.842 495.395 216.516 497.145 216.499C498.915 216.481 500.497 216.774 501.89 217.379C503.282 217.984 504.464 218.825 505.435 219.904C506.406 220.982 507.155 222.254 507.682 223.721C508.208 225.167 508.48 226.743 508.497 228.449C508.514 230.113 508.274 231.673 507.776 233.129C507.279 234.563 506.555 235.818 505.606 236.895C504.657 237.971 503.492 238.825 502.112 239.458C500.731 240.069 499.156 240.384 497.385 240.402C495.636 240.419 494.054 240.136 492.64 239.553C491.247 238.949 490.066 238.118 489.095 237.061C488.124 236.004 487.376 234.763 486.849 233.339C486.323 231.894 486.051 230.339 486.034 228.675ZM511.23 216.804L518.289 216.374L524.578 231.732L524.642 231.728L528.733 215.738L535.792 215.308L537.181 238.114L532.486 238.4L531.501 222.238L531.438 222.241L526.832 238.744L522.967 238.979L516.403 223.317L516.339 223.321L517.314 239.324L512.619 239.61L511.23 216.804ZM539.541 214.972L546.564 214.139L553.72 229.113L553.784 229.106L556.955 212.908L563.978 212.075L566.668 234.765L561.996 235.318L560.09 219.239L560.027 219.246L556.372 235.985L552.527 236.441L545.078 221.179L545.015 221.187L546.902 237.107L542.231 237.661L539.541 214.972ZM589.276 222.199C589.806 225.246 589.35 227.664 587.908 229.453C586.461 231.22 584.235 232.366 581.23 232.889C578.182 233.419 575.69 233.095 573.752 231.917C571.836 230.734 570.611 228.609 570.077 225.54L567.64 211.543L572.59 210.681L575.026 224.679C575.132 225.288 575.289 225.878 575.496 226.448C575.704 227.019 576.016 227.506 576.433 227.91C576.846 228.292 577.372 228.58 578.012 228.772C578.669 228.939 579.502 228.934 580.511 228.759C582.276 228.452 583.428 227.851 583.965 226.956C584.498 226.04 584.619 224.742 584.326 223.06L581.89 209.063L586.839 208.201L589.276 222.199ZM590.54 207.463L595.411 206.371L608.068 219.243L608.131 219.229L604.779 204.272L609.369 203.243L614.365 225.538L609.463 226.637L596.844 213.789L596.782 213.803L600.127 228.729L595.536 229.758L590.54 207.463ZM613.285 202.295L618.147 201.03L623.901 223.142L619.039 224.407L613.285 202.295ZM628.113 202.583L621.539 204.502L620.355 200.448L638.325 195.201L639.509 199.255L632.936 201.175L638.156 219.052L633.333 220.461L628.113 202.583ZM650.444 205.83L638.022 195.312L643.356 193.502L651.316 200.331L653.447 190.079L658.75 188.279L655.243 204.337L658.06 212.641L653.303 214.255L650.444 205.83ZM679.011 192.652C679.373 193.564 679.369 194.449 678.998 195.308C678.647 196.159 678.006 196.769 677.074 197.139C676.142 197.509 675.247 197.509 674.388 197.138C673.549 196.76 672.949 196.115 672.587 195.203C672.217 194.271 672.211 193.389 672.57 192.558C672.94 191.7 673.591 191.085 674.523 190.715C675.455 190.345 676.341 190.349 677.179 190.728C678.03 191.079 678.641 191.72 679.011 192.652ZM694.754 183.489L699.377 181.364C700.191 180.989 700.771 180.488 701.116 179.86C701.461 179.232 701.434 178.481 701.033 177.609C700.81 177.125 700.54 176.767 700.223 176.537C699.906 176.307 699.562 176.172 699.191 176.131C698.82 176.09 698.427 176.13 698.013 176.25C697.609 176.342 697.204 176.481 696.796 176.668L692.522 178.633L694.754 183.489ZM686.327 177.184L696.096 172.694C697.085 172.239 698.026 171.912 698.921 171.712C699.815 171.512 700.646 171.482 701.415 171.622C702.175 171.743 702.861 172.061 703.474 172.577C704.107 173.085 704.646 173.823 705.091 174.793C705.572 175.839 705.731 176.823 705.567 177.743C705.423 178.655 704.988 179.548 704.262 180.421C705.711 180.201 706.959 180.414 708.007 181.059C709.066 181.676 709.893 182.634 710.49 183.933C710.971 184.98 711.187 185.984 711.136 186.947C711.076 187.89 710.809 188.764 710.334 189.569C709.878 190.366 709.258 191.085 708.474 191.728C707.708 192.361 706.86 192.892 705.93 193.32L695.87 197.944L686.327 177.184ZM698.804 192.298L703.689 190.053C704.135 189.848 704.543 189.613 704.915 189.349C705.277 189.065 705.569 188.754 705.79 188.418C706.002 188.062 706.115 187.67 706.129 187.241C706.163 186.803 706.055 186.312 705.805 185.77C705.315 184.704 704.667 184.086 703.861 183.916C703.047 183.727 702.145 183.86 701.156 184.314L696.185 186.6L698.804 192.298ZM706.445 167.867L710.942 165.627L721.129 186.078L716.632 188.318L706.445 167.867ZM714.532 163.766L718.954 161.381L723.449 169.719L726.813 157.145L732.334 154.169L728.757 166.348L743.937 173.87L738.388 176.862L727.457 171.085L726.304 175.015L729.797 181.493L725.374 183.877L714.532 163.766ZM734.515 152.921L738.861 150.401L750.322 170.166L745.976 172.687L734.515 152.921ZM742.333 148.314L746.57 145.674L762.769 153.642L762.823 153.608L754.718 140.598L758.711 138.111L770.792 157.504L766.528 160.16L750.373 152.202L750.319 152.236L758.407 165.219L754.414 167.706L742.333 148.314ZM787.062 143.33C786.975 144.787 786.616 146.017 785.984 147.019C785.34 148.004 784.561 148.81 783.646 149.438C782.204 150.428 780.733 151.074 779.234 151.378C777.741 151.653 776.296 151.622 774.901 151.285C773.506 150.949 772.193 150.336 770.963 149.447C769.72 148.54 768.628 147.401 767.686 146.029C766.721 144.621 766.039 143.175 765.64 141.689C765.23 140.185 765.113 138.714 765.289 137.273C765.465 135.833 765.95 134.466 766.743 133.171C767.554 131.864 768.681 130.716 770.124 129.727C771.091 129.063 772.126 128.573 773.228 128.256C774.336 127.91 775.444 127.771 776.551 127.839C777.676 127.895 778.76 128.174 779.802 128.675C780.844 129.176 781.786 129.927 782.628 130.927L778.67 133.643C777.7 132.756 776.682 132.29 775.616 132.245C774.55 132.2 773.516 132.522 772.513 133.21C771.581 133.849 770.916 134.577 770.518 135.393C770.109 136.191 769.913 137.037 769.931 137.931C769.937 138.806 770.108 139.698 770.446 140.604C770.801 141.499 771.262 142.36 771.829 143.187C772.372 143.978 772.991 144.692 773.686 145.328C774.386 145.934 775.144 146.397 775.959 146.718C776.774 147.038 777.634 147.16 778.538 147.083C779.43 146.988 780.343 146.621 781.275 145.981C782.647 145.04 783.467 143.973 783.735 142.78C784.009 141.557 783.755 140.244 782.973 138.84L778.804 141.7L776.686 138.613L784.602 133.182L791.59 143.368L788.951 145.178L787.062 143.33ZM801.144 122.079C801.736 122.861 801.968 123.716 801.84 124.642C801.73 125.556 801.274 126.315 800.475 126.921C799.676 127.526 798.813 127.765 797.887 127.637C796.977 127.496 796.226 127.035 795.634 126.252C795.028 125.453 794.787 124.605 794.911 123.709C795.039 122.782 795.503 122.016 796.302 121.411C797.101 120.805 797.956 120.573 798.865 120.714C799.779 120.825 800.538 121.28 801.144 122.079ZM820.777 101.361C820.343 100.973 819.861 100.693 819.332 100.523C818.788 100.337 818.229 100.248 817.652 100.255C817.076 100.263 816.505 100.377 815.939 100.597C815.376 100.788 814.857 101.081 814.381 101.476C813.512 102.199 812.917 102.985 812.596 103.834C812.262 104.667 812.145 105.527 812.245 106.415C812.331 107.287 812.584 108.158 813.004 109.03C813.44 109.888 813.978 110.703 814.619 111.474C815.233 112.212 815.915 112.866 816.666 113.435C817.419 113.974 818.216 114.365 819.057 114.609C819.898 114.853 820.765 114.895 821.659 114.735C822.538 114.559 823.413 114.109 824.282 113.386C825.464 112.404 826.082 111.28 826.138 110.012C826.211 108.731 825.83 107.439 824.996 106.135L828.736 103.026C829.551 104.207 830.122 105.41 830.448 106.637C830.775 107.864 830.861 109.069 830.706 110.251C830.552 111.434 830.16 112.564 829.531 113.642C828.901 114.721 828.045 115.71 826.962 116.61C825.617 117.728 824.212 118.508 822.748 118.948C821.286 119.359 819.845 119.461 818.425 119.255C817.005 119.048 815.641 118.559 814.333 117.787C813.012 116.999 811.82 115.965 810.756 114.686C809.665 113.373 808.853 111.996 808.319 110.553C807.772 109.093 807.519 107.639 807.562 106.188C807.605 104.738 807.962 103.332 808.632 101.97C809.32 100.594 810.336 99.3466 811.681 98.2283C812.649 97.4236 813.675 96.8062 814.76 96.3759C815.861 95.9319 816.973 95.7011 818.096 95.6833C819.221 95.6354 820.333 95.8211 821.43 96.2403C822.528 96.6595 823.557 97.3299 824.517 98.2515L820.777 101.361ZM832.697 96.1209C833.34 96.834 834.047 97.4598 834.82 97.9984C835.594 98.5069 836.406 98.8662 837.256 99.0765C838.106 99.2868 838.975 99.2942 839.861 99.0985C840.733 98.887 841.589 98.4027 842.429 97.6458C843.269 96.8888 843.839 96.0876 844.14 95.2422C844.426 94.381 844.509 93.5167 844.387 92.6494C844.266 91.7821 843.985 90.9443 843.544 90.1359C843.104 89.2974 842.563 88.5216 841.92 87.8085C841.249 87.0637 840.512 86.4212 839.709 85.881C838.922 85.3266 838.103 84.9442 837.253 84.7339C836.389 84.5078 835.521 84.5005 834.649 84.712C833.763 84.9077 832.899 85.384 832.06 86.141C831.22 86.8979 830.657 87.707 830.37 88.5683C830.069 89.4136 829.987 90.2779 830.122 91.161C830.243 92.0283 830.531 92.8892 830.985 93.7435C831.455 94.5836 832.026 95.3761 832.697 96.1209ZM828.965 99.4844C827.822 98.2166 826.956 96.8726 826.365 95.4522C825.76 94.016 825.449 92.5724 825.434 91.1215C825.419 89.6706 825.719 88.2512 826.335 86.8633C826.967 85.4611 827.932 84.1744 829.232 83.0033C830.547 81.8178 831.927 80.9907 833.371 80.5219C834.815 80.0531 836.258 79.9014 837.7 80.0669C839.141 80.2324 840.545 80.6905 841.911 81.4411C843.262 82.1759 844.509 83.1772 845.652 84.445C846.766 85.681 847.618 87.0092 848.209 88.4296C848.786 89.8341 849.075 91.2539 849.076 92.6889C849.077 94.124 848.769 95.5355 848.153 96.9234C847.523 98.2955 846.55 99.5742 845.235 100.76C843.936 101.931 842.563 102.766 841.117 103.265C839.673 103.734 838.237 103.893 836.81 103.744C835.383 103.594 834.001 103.16 832.663 102.441C831.312 101.706 830.079 100.72 828.965 99.4844ZM840.077 73.8499L845.128 68.8995L859.942 76.3795L859.988 76.3347L852.601 61.5748L857.651 56.6245L873.644 72.9414L870.285 76.2341L858.951 64.6706L858.905 64.7154L866.24 80.1989L863.475 82.9093L848.253 75.3799L848.208 75.4247L859.43 86.874L856.071 90.1668L840.077 73.8499ZM871.706 57.5155L874.387 54.6776C874.783 54.2589 875.132 53.8264 875.437 53.3801C875.741 52.9339 875.947 52.4828 876.055 52.027C876.147 51.5566 876.111 51.0822 875.946 50.604C875.797 50.1102 875.458 49.6143 874.931 49.1162C874.403 48.6181 873.889 48.3083 873.388 48.1867C872.901 48.0496 872.433 48.0478 871.984 48.1813C871.52 48.3001 871.073 48.5241 870.645 48.8532C870.217 49.1823 869.805 49.5561 869.409 49.9748L866.728 52.8127L871.706 57.5155ZM860.44 53.7837L867.516 46.2936C868.498 45.2546 869.488 44.5172 870.487 44.0814C871.47 43.6309 872.422 43.4152 873.343 43.4343C874.279 43.4379 875.16 43.6392 875.986 44.0383C876.827 44.4218 877.589 44.9359 878.271 45.5805C878.938 46.2105 879.494 46.9417 879.941 47.7741C880.386 48.5764 880.637 49.4445 880.694 50.3785C880.765 51.2971 880.611 52.2673 880.233 53.2891C879.839 54.2963 879.151 55.3194 878.17 56.3584L874.544 60.1965L880.499 65.8222L877.049 69.4742L860.44 53.7837ZM888.497 46.0647C889.071 46.5752 889.649 46.9041 890.232 47.0515C890.815 47.1988 891.383 47.2186 891.936 47.1108C892.487 46.9728 893.032 46.7295 893.57 46.3808C894.093 46.0178 894.574 45.5893 895.014 45.0953C895.312 44.7606 895.607 44.3807 895.899 43.9556C896.176 43.5164 896.383 43.0585 896.522 42.582C896.66 42.1055 896.693 41.6352 896.621 41.171C896.533 40.6926 896.273 40.262 895.843 39.8791C895.381 39.4678 894.871 39.286 894.315 39.3335C893.773 39.3652 893.194 39.535 892.577 39.8429C891.96 40.1509 891.311 40.5439 890.628 41.0219C889.946 41.4999 889.241 41.9717 888.512 42.4373C887.786 42.933 887.041 43.3844 886.279 43.7915C885.502 44.1844 884.717 44.4569 883.925 44.6089C883.133 44.7608 882.331 44.7471 881.52 44.5678C880.707 44.3584 879.91 43.9062 879.129 43.2113C878.252 42.4314 877.658 41.5745 877.347 40.6407C877.034 39.6768 876.931 38.7006 877.04 37.7121C877.148 36.7235 877.439 35.7546 877.913 34.8052C878.386 33.8559 878.963 32.9987 879.644 32.2337C880.438 31.3411 881.301 30.5806 882.231 29.9522C883.16 29.2936 884.131 28.844 885.144 28.6036C886.158 28.3631 887.178 28.3716 888.206 28.629C889.231 28.8563 890.238 29.4095 891.226 30.2887L887.993 33.9225C887.455 33.5006 886.933 33.2364 886.428 33.1299C885.937 33.0074 885.462 33.0125 885.001 33.1451C884.54 33.2778 884.093 33.5079 883.659 33.8354C883.239 34.147 882.823 34.5339 882.412 34.9961C882.142 35.2989 881.905 35.6301 881.699 35.9896C881.493 36.3492 881.357 36.7274 881.289 37.1242C881.236 37.505 881.258 37.8815 881.355 38.2536C881.453 38.6257 881.684 38.9748 882.051 39.301C882.386 39.5988 882.713 39.7761 883.034 39.833C883.355 39.8898 883.766 39.813 884.267 39.6024C884.783 39.3759 885.419 39.0139 886.176 38.5164C886.947 38.003 887.943 37.3329 889.164 36.5062C889.511 36.2441 890.021 35.9122 890.692 35.5104C891.362 35.0784 892.129 34.7466 892.991 34.5149C893.854 34.2833 894.774 34.2447 895.75 34.3993C896.724 34.5238 897.69 35.0115 898.646 35.8624C899.427 36.5572 900.017 37.3539 900.417 38.2523C900.817 39.1507 900.995 40.1225 900.95 41.1678C900.903 42.1829 900.618 43.2572 900.095 44.3908C899.586 45.5085 898.814 46.6491 897.779 47.8125C896.942 48.7528 896.007 49.5629 894.974 50.2427C893.971 50.9208 892.918 51.3827 891.814 51.6284C890.724 51.8582 889.62 51.8319 888.5 51.5497C887.38 51.2675 886.302 50.6504 885.264 49.6985L888.497 46.0647ZM904.009 16.4122C903.512 16.1083 902.988 15.9205 902.437 15.8487C901.869 15.7632 901.302 15.776 900.736 15.8872C900.171 15.9984 899.63 16.2134 899.113 16.5323C898.593 16.8211 898.135 17.2028 897.739 17.6775C897.014 18.5451 896.57 19.4254 896.407 20.3183C896.229 21.1976 896.268 22.0649 896.527 22.9202C896.769 23.7618 897.174 24.5737 897.744 25.3557C898.328 26.1213 899.004 26.8256 899.773 27.4686C900.51 28.0842 901.299 28.6043 902.139 29.0289C902.977 29.4234 903.832 29.665 904.703 29.7536C905.574 29.8423 906.435 29.7274 907.285 29.409C908.118 29.077 908.898 28.4771 909.623 27.6096C910.608 26.431 911.014 25.2133 910.841 23.9566C910.681 22.6835 910.074 21.4808 909.018 20.3485L912.138 16.6163C913.152 17.6311 913.931 18.7125 914.473 19.8605C915.014 21.0085 915.316 22.178 915.377 23.369C915.438 24.56 915.256 25.7424 914.831 26.9163C914.406 28.0903 913.742 29.2174 912.839 30.2978C911.718 31.6401 910.476 32.6599 909.115 33.3572C907.751 34.0245 906.352 34.3844 904.918 34.437C903.484 34.4896 902.054 34.254 900.629 33.7303C899.188 33.1929 897.828 32.3906 896.552 31.3236C895.242 30.2291 894.195 29.0203 893.41 27.6972C892.609 26.3604 892.099 24.9748 891.88 23.5405C891.66 22.1062 891.758 20.6586 892.173 19.1979C892.601 17.7208 893.376 16.3111 894.498 14.9688C895.305 14.003 896.203 13.2108 897.193 12.5921C898.196 11.9571 899.248 11.5298 900.349 11.3101C901.448 11.0604 902.575 11.0429 903.73 11.2575C904.885 11.4722 906.018 11.9464 907.128 12.68L904.009 16.4122ZM903.356 5.14404L906.49 1.21746L924.348 15.4706L921.214 19.3972L903.356 5.14404Z" fill="white"/>
</svg>
