<svg width="1297" height="197" viewBox="0 0 1297 197" fill="none" xmlns="http://www.w3.org/2000/svg">
<path d="M8.01762 114.874C8.51659 115.732 8.64989 116.611 8.4175 117.512C8.20345 118.402 7.66535 119.092 6.80319 119.582C5.94104 120.071 5.0575 120.188 4.15258 119.933C3.266 119.668 2.57322 119.106 2.07425 118.248C1.56442 117.372 1.42196 116.498 1.64685 115.626C1.87924 114.725 2.42652 114.03 3.28867 113.541C4.15083 113.051 5.0252 112.939 5.91177 113.205C6.80585 113.441 7.5078 113.998 8.01762 114.874ZM13.9926 98.5002L29.0074 90.7351L31.0147 94.5028L20.4144 99.9848L22.7411 104.352L32.4697 99.3206L34.325 102.803L24.5963 107.834L27.2575 112.829L38.0828 107.231L40.0901 110.998L24.8504 118.88L13.9926 98.5002ZM32.6152 88.9654L37.0821 86.8545L52.4222 96.7302L52.4794 96.7031L45.6721 82.7951L49.8813 80.806L60.0283 101.537L55.5328 103.662L40.2355 93.8016L40.1783 93.8286L46.9713 107.708L42.7622 109.697L32.6152 88.9654ZM77.6093 91.0924C77.267 92.5037 76.6971 93.6376 75.8994 94.494C75.093 95.3308 74.1848 95.9651 73.1748 96.397C71.5821 97.0781 70.022 97.4173 68.4945 97.4147C66.9777 97.384 65.5631 97.0637 64.2506 96.4538C62.9381 95.8438 61.755 94.9795 60.7013 93.8606C59.6388 92.7221 58.7656 91.3856 58.0816 89.851C57.3801 88.2771 56.9643 86.7215 56.8341 85.1843C56.6952 83.6274 56.8392 82.1604 57.266 80.7833C57.6928 79.4061 58.4103 78.1623 59.4185 77.0518C60.4461 75.9331 61.7563 75.0332 63.349 74.3521C64.4173 73.8952 65.5212 73.6222 66.6609 73.5331C67.8112 73.416 68.9248 73.5019 70.0018 73.7909C71.0982 74.0717 72.1146 74.5622 73.0512 75.2627C73.9878 75.9631 74.7818 76.8884 75.4333 78.0387L71.0631 79.9076C70.265 78.8434 69.3459 78.1824 68.3059 77.9244C67.2659 77.6664 66.1924 77.7741 65.0853 78.2476C64.0558 78.6878 63.2739 79.2681 62.7394 79.9886C62.1961 80.6894 61.8545 81.4797 61.7147 82.3593C61.5662 83.2193 61.578 84.1278 61.7501 85.0848C61.9417 86.0335 62.2436 86.9702 62.6558 87.8949C63.0504 88.7802 63.5333 89.6044 64.1046 90.3673C64.6866 91.1023 65.35 91.7087 66.0949 92.1866C66.8398 92.6644 67.6636 92.9563 68.5664 93.0621C69.4605 93.1483 70.4222 92.9713 71.4516 92.531C72.9666 91.8832 73.961 91.0012 74.4348 89.885C74.9192 88.7409 74.9006 87.402 74.3789 85.8682L69.7756 87.8368L68.2366 84.384L76.977 80.6462L82.0543 92.0376L79.1409 93.2835L77.6093 91.0924ZM76.656 69.3275L81.2833 67.495L90.1199 88.7947L85.4926 90.6272L76.656 69.3275ZM85.6413 65.8348L90.2872 64.1341L104.726 75.3134L104.785 75.2916L99.2216 60.8635L103.599 59.2608L111.893 80.7675L107.217 82.4791L92.8199 71.319L92.7604 71.3408L98.3125 85.7388L93.9346 87.3414L85.6413 65.8348ZM108.092 57.7011L124.191 52.4121L125.594 56.4333L114.228 60.1673L115.854 64.8283L126.285 61.4014L127.582 65.118L117.151 68.5449L119.011 73.8761L130.618 70.0629L132.021 74.0841L115.681 79.4523L108.092 57.7011ZM127.996 51.2402L144.263 46.4568L145.542 50.5166L134.058 53.8936L135.541 58.5992L146.08 55.4999L147.263 59.2521L136.723 62.3514L138.419 67.7336L150.147 64.285L151.426 68.3447L134.915 73.1997L127.996 51.2402ZM155.762 54.1784L161.053 52.8113C162.161 52.5252 162.922 52.0623 163.337 51.4227C163.751 50.7831 163.802 49.9048 163.489 48.7876C163.188 47.7119 162.694 47.0076 162.007 46.6748C161.314 46.3214 160.414 46.2878 159.306 46.5739L154.015 47.9411L155.762 54.1784ZM148.125 45.4031L159.969 42.3429C160.953 42.0886 161.881 42.0262 162.753 42.1559C163.64 42.2595 164.439 42.5191 165.149 42.9346C165.879 43.3448 166.493 43.8852 166.988 44.5558C167.499 45.2003 167.873 45.9467 168.11 46.7949C168.475 48.0983 168.514 49.2973 168.227 50.392C167.96 51.4814 167.281 52.4334 166.19 53.2478L166.207 53.3099C166.848 53.3217 167.413 53.4531 167.901 53.7041C168.384 53.9345 168.814 54.2557 169.194 54.668C169.567 55.0595 169.884 55.5213 170.143 56.0534C170.422 56.5802 170.661 57.1175 170.858 57.6655C170.977 58.0119 171.113 58.4204 171.267 58.8909C171.421 59.3614 171.588 59.8396 171.768 60.3255C171.969 60.8061 172.184 61.2608 172.414 61.6894C172.659 62.0921 172.937 62.4194 173.25 62.6714L168.42 63.9194C167.956 63.2849 167.558 62.4894 167.224 61.533C166.89 60.5765 166.537 59.6694 166.165 58.8116C165.676 57.6955 165.09 56.9374 164.406 56.5373C163.722 56.1372 162.775 56.0934 161.565 56.4061L156.736 57.654L159.161 66.3119L154.331 67.5598L148.125 45.4031ZM170.595 39.6541L175.455 38.5199L181.147 60.8028L176.287 61.9369L170.595 39.6541ZM180.012 37.5167L184.871 36.511L197.602 49.62L197.664 49.6071L194.214 34.5769L198.793 33.6293L203.935 56.0332L199.045 57.0454L186.353 43.9614L186.29 43.9742L189.733 58.973L185.154 59.9207L180.012 37.5167ZM223.567 49.9476C222.91 51.2353 222.093 52.2023 221.117 52.8487C220.136 53.474 219.102 53.8801 218.015 54.067C216.3 54.3616 214.695 54.3328 213.2 53.9805C211.722 53.6035 210.41 52.9696 209.264 52.0787C208.117 51.1879 207.156 50.0803 206.379 48.7561C205.599 47.4109 205.048 45.9173 204.728 44.2753C204.4 42.5912 204.348 40.9902 204.571 39.4725C204.79 37.9337 205.265 36.5467 205.997 35.3114C206.729 34.0761 207.715 33.0364 208.955 32.1924C210.217 31.3448 211.705 30.7736 213.42 30.479C214.57 30.2814 215.713 30.2699 216.849 30.4445C218.002 30.5945 219.073 30.9327 220.062 31.459C221.071 31.9817 221.955 32.6893 222.712 33.5817C223.47 34.4741 224.036 35.5515 224.412 36.8141L219.707 37.6226C219.168 36.4098 218.418 35.5595 217.459 35.0717C216.499 34.5839 215.424 34.4424 214.232 34.6472C213.123 34.8376 212.225 35.2203 211.538 35.7953C210.846 36.3493 210.331 37.036 209.994 37.8554C209.652 38.6538 209.457 39.5359 209.407 40.5017C209.378 41.4639 209.46 42.4397 209.653 43.4291C209.838 44.3764 210.123 45.2847 210.508 46.154C210.911 46.9986 211.422 47.7375 212.042 48.3706C212.663 49.0037 213.403 49.4748 214.263 49.7839C215.119 50.072 216.101 50.1208 217.209 49.9304C218.84 49.6501 220.015 49.024 220.733 48.0521C221.469 47.0556 221.756 45.7553 221.594 44.1513L216.638 45.0029L215.918 41.3084L225.329 39.6915L227.704 51.8802L224.567 52.4191L223.567 49.9476ZM245.145 37.766C245.298 38.7398 245.099 39.5984 244.549 40.3416C244.021 41.0821 243.262 41.5182 242.272 41.6501C241.283 41.7819 240.41 41.5632 239.655 40.9938C238.921 40.4217 238.477 39.6487 238.324 38.6749C238.168 37.6798 238.357 36.8227 238.889 36.1034C239.438 35.3602 240.208 34.9226 241.197 34.7908C242.187 34.6589 243.048 34.8791 243.783 35.4512C244.535 35.9994 244.989 36.771 245.145 37.766ZM262.842 33.6203L267.888 33.1298C268.776 33.0434 269.48 32.7599 270 32.2792C270.52 31.7986 270.722 31.08 270.606 30.1234C270.541 29.592 270.393 29.1655 270.162 28.8439C269.93 28.5223 269.644 28.2813 269.304 28.1209C268.963 27.9604 268.578 27.8689 268.147 27.8462C267.735 27.8003 267.306 27.7989 266.862 27.8421L262.197 28.2956L262.842 33.6203ZM256.744 24.89L267.407 23.8534C268.485 23.7485 269.481 23.7486 270.392 23.8535C271.304 23.9584 272.104 24.2032 272.793 24.5879C273.479 24.9513 274.035 25.4779 274.461 26.1678C274.908 26.8555 275.196 27.7308 275.325 28.7936C275.464 29.9415 275.315 30.9237 274.879 31.7404C274.464 32.555 273.778 33.2561 272.822 33.8437C274.267 34.1118 275.39 34.7231 276.19 35.6776C277.01 36.6088 277.505 37.7865 277.678 39.2107C277.817 40.3585 277.715 41.3792 277.374 42.2726C277.03 43.1448 276.51 43.8836 275.812 44.4891C275.136 45.0925 274.327 45.569 273.385 45.9187C272.464 46.2663 271.496 46.4895 270.48 46.5882L259.501 47.6557L256.744 24.89ZM264.012 43.2814L269.343 42.7631C269.829 42.7158 270.29 42.628 270.724 42.4998C271.155 42.3503 271.527 42.1529 271.84 41.9074C272.15 41.6407 272.377 41.3067 272.521 40.9056C272.686 40.5024 272.733 40.0032 272.661 39.4081C272.519 38.239 272.091 37.4418 271.376 37.0167C270.659 36.5703 269.76 36.3995 268.681 36.5044L263.255 37.032L264.012 43.2814ZM300.015 35.6785C300.293 38.7684 299.641 41.1265 298.058 42.7528C296.473 44.3578 294.163 45.2602 291.128 45.4602C288.05 45.663 285.595 45.0745 283.763 43.6947C281.952 42.3135 280.906 40.0673 280.626 36.9561L279.349 22.7637L284.347 22.4343L285.625 36.6267C285.68 37.2447 285.788 37.8485 285.948 38.4382C286.108 39.0279 286.379 39.546 286.76 39.9924C287.14 40.4175 287.641 40.7597 288.262 41.0189C288.902 41.2553 289.732 41.34 290.751 41.2729C292.534 41.1554 293.729 40.68 294.337 39.8468C294.944 38.9923 295.17 37.7126 295.017 36.0078L293.739 21.8155L298.737 21.4861L300.015 35.6785ZM307.721 36.3947C307.767 37.163 307.945 37.8089 308.254 38.3323C308.563 38.8557 308.952 39.28 309.419 39.6051C309.907 39.9081 310.464 40.1337 311.091 40.2819C311.717 40.4087 312.36 40.4601 313.019 40.4359C313.466 40.4196 313.943 40.3701 314.449 40.2874C314.955 40.1833 315.424 40.0164 315.858 39.7867C316.292 39.5569 316.646 39.2552 316.922 38.8815C317.196 38.4865 317.316 38.0008 317.281 37.4246C317.243 36.8057 317.011 36.3116 316.583 35.9422C316.177 35.5721 315.647 35.2706 314.993 35.0379C314.339 34.8051 313.602 34.6075 312.782 34.445C311.962 34.2825 311.13 34.099 310.286 33.8946C309.423 33.7123 308.577 33.4866 307.751 33.2174C306.923 32.9268 306.175 32.5478 305.507 32.0803C304.839 31.6127 304.281 31.0236 303.833 30.3127C303.404 29.5798 303.158 28.6905 303.094 27.6447C303.023 26.4709 303.206 25.4483 303.643 24.5767C304.1 23.683 304.715 22.9333 305.489 22.3275C306.262 21.7217 307.15 21.2614 308.155 20.9466C309.159 20.6319 310.171 20.4558 311.192 20.4184C312.384 20.3749 313.53 20.4719 314.632 20.7097C315.753 20.9253 316.758 21.3164 317.645 21.8828C318.532 22.4492 319.249 23.193 319.796 24.1142C320.362 25.0132 320.686 26.1243 320.766 27.4474L315.916 27.6248C315.832 26.9435 315.649 26.3834 315.366 25.9445C315.105 25.5049 314.765 25.1645 314.345 24.9231C313.925 24.6818 313.446 24.5176 312.908 24.4303C312.391 24.3423 311.824 24.3095 311.207 24.3321C310.803 24.3469 310.401 24.4044 310.002 24.5045C309.603 24.6047 309.24 24.7677 308.913 24.9935C308.607 25.2186 308.357 25.4951 308.164 25.823C307.971 26.1509 307.889 26.5603 307.919 27.0512C307.946 27.4993 308.053 27.859 308.24 28.1302C308.428 28.4014 308.773 28.6455 309.276 28.8623C309.801 29.0784 310.507 29.2879 311.393 29.4907C312.301 29.6928 313.478 29.9492 314.926 30.2599C315.356 30.3297 315.951 30.4683 316.71 30.6758C317.489 30.8613 318.265 31.1858 319.04 31.6494C319.814 32.113 320.492 32.7512 321.075 33.5641C321.677 34.3549 322.018 35.3905 322.096 36.671C322.159 37.7167 322.016 38.6951 321.667 39.6063C321.317 40.5174 320.759 41.3185 319.991 42.0097C319.242 42.6787 318.284 43.2164 317.115 43.6228C315.967 44.0284 314.617 44.2596 313.064 44.3164C311.809 44.3623 310.576 44.247 309.365 43.9705C308.177 43.7145 307.106 43.2724 306.151 42.6443C305.217 42.0154 304.453 41.1985 303.859 40.1935C303.265 39.1886 302.935 37.9815 302.871 36.5722L307.721 36.3947ZM324.312 20.5274L329.326 20.4383L330.292 43.3067L325.277 43.3958L324.312 20.5274ZM333.98 20.4064L338.966 20.4265L348.805 35.8089L348.869 35.8091L348.554 20.4652L353.252 20.4841L353.722 43.3559L348.704 43.3357L338.898 27.9855L338.834 27.9852L339.148 43.2971L334.45 43.2782L333.98 20.4064ZM357.978 20.5674L375.048 21.1007L375.02 25.3271L362.969 24.9506L362.937 29.8493L373.997 30.1949L373.971 34.1011L362.911 33.7555L362.875 39.3587L375.181 39.7432L375.154 43.9695L357.828 43.4282L357.978 20.5674ZM381.922 36.7373C381.897 37.5048 382.014 38.1631 382.274 38.712C382.533 39.2609 382.881 39.7188 383.317 40.0856C383.775 40.4324 384.31 40.7088 384.922 40.9148C385.535 41.0996 386.172 41.2109 386.832 41.2489C387.279 41.2746 387.76 41.2701 388.273 41.2355C388.787 41.1796 389.271 41.0579 389.725 40.8704C390.179 40.6829 390.562 40.4165 390.872 40.0712C391.182 39.7046 391.347 39.2334 391.366 38.6578C391.386 38.0395 391.2 37.5268 390.808 37.1198C390.437 36.714 389.937 36.3648 389.306 36.0722C388.675 35.7797 387.959 35.5142 387.155 35.2758C386.352 35.0374 385.539 34.7771 384.716 34.4948C383.871 34.2326 383.049 33.929 382.249 33.584C381.45 33.2177 380.74 32.771 380.117 32.2439C379.494 31.7168 378.992 31.0792 378.611 30.331C378.252 29.5628 378.089 28.6563 378.124 27.6116C378.162 26.439 378.44 25.4403 378.958 24.6156C379.498 23.7709 380.182 23.0839 381.01 22.5548C381.838 22.0256 382.768 21.6519 383.799 21.4334C384.831 21.215 385.858 21.1352 386.88 21.1939C388.073 21.2625 389.208 21.4666 390.285 21.8061C391.384 22.1256 392.35 22.6084 393.183 23.2543C394.015 23.9002 394.661 24.7063 395.12 25.6726C395.601 26.6187 395.82 27.7528 395.777 29.0746L390.921 28.7956C390.9 28.1109 390.77 27.5373 390.529 27.0749C390.309 26.6137 390.001 26.2435 389.605 25.9644C389.209 25.6853 388.746 25.4772 388.217 25.34C387.709 25.204 387.146 25.1183 386.529 25.0828C386.124 25.0595 385.718 25.0789 385.311 25.1409C384.903 25.2029 384.525 25.3308 384.178 25.5244C383.851 25.7192 383.576 25.9704 383.353 26.278C383.129 26.5856 383.01 26.9845 382.993 27.4749C382.979 27.9227 383.052 28.29 383.213 28.577C383.375 28.8639 383.697 29.1387 384.179 29.4014C384.682 29.6653 385.367 29.9396 386.232 30.2243C387.119 30.5103 388.27 30.8755 389.686 31.3199C390.109 31.4297 390.689 31.6233 391.427 31.9006C392.187 32.1579 392.932 32.5531 393.661 33.0863C394.39 33.6196 395.008 34.3172 395.513 35.1793C396.04 36.0213 396.283 37.0819 396.241 38.3612C396.207 39.4059 395.973 40.3643 395.539 41.2366C395.105 42.1088 394.472 42.8521 393.641 43.4665C392.832 44.0608 391.826 44.505 390.621 44.7989C389.438 45.094 388.069 45.1969 386.514 45.1075C385.257 45.0353 384.038 44.805 382.855 44.4167C381.693 44.0509 380.666 43.5112 379.771 42.7976C378.898 42.0853 378.212 41.2021 377.713 40.1481C377.214 39.0941 376.999 37.8642 377.066 36.4582L381.922 36.7373ZM402.573 38.0565C402.53 38.8228 402.632 39.4833 402.878 40.0379C403.125 40.5925 403.462 41.0582 403.889 41.4351C404.339 41.7924 404.868 42.0813 405.476 42.3017C406.084 42.5008 406.718 42.6272 407.378 42.6808C407.825 42.7171 408.305 42.724 408.819 42.7017C409.335 42.658 409.822 42.5479 410.281 42.3714C410.74 42.1948 411.128 41.9377 411.447 41.6C411.766 41.2411 411.942 40.7743 411.975 40.1996C412.009 39.5823 411.836 39.0657 411.453 38.6497C411.092 38.2354 410.599 37.8746 409.975 37.5673C409.351 37.2601 408.64 36.9778 407.843 36.7205C407.045 36.4633 406.238 36.1839 405.421 35.8823C404.582 35.6003 403.767 35.2775 402.975 34.9138C402.185 34.5288 401.484 34.0656 400.873 33.5242C400.263 32.9827 399.776 32.3337 399.412 31.5772C399.071 30.8011 398.93 29.8915 398.989 28.8485C399.055 27.6778 399.357 26.6866 399.895 25.875C400.455 25.0437 401.155 24.3736 401.996 23.8646C402.837 23.3556 403.776 23.0042 404.813 22.8105C405.85 22.6167 406.879 22.5613 407.9 22.6443C409.092 22.7411 410.222 22.972 411.292 23.3368C412.384 23.6821 413.338 24.1874 414.156 24.8525C414.973 25.5177 415.6 26.3384 416.037 27.3147C416.496 28.2715 416.688 29.4097 416.613 30.7294L411.762 30.3353C411.758 29.6507 411.641 29.0745 411.411 28.6068C411.202 28.1408 410.903 27.7636 410.513 27.4754C410.123 27.1871 409.665 26.9681 409.139 26.8185C408.635 26.6706 408.074 26.5716 407.457 26.5214C407.053 26.4886 406.646 26.4983 406.237 26.5506C405.828 26.6029 405.447 26.7217 405.094 26.9069C404.763 27.0938 404.482 27.3382 404.252 27.6402C404.021 27.9422 403.892 28.338 403.864 28.8276C403.839 29.2746 403.903 29.6434 404.058 29.9339C404.212 30.2244 404.528 30.5067 405.004 30.7806C405.501 31.0562 406.18 31.3465 407.039 31.6515C407.919 31.9583 409.062 32.3505 410.467 32.8282C410.888 32.9479 411.464 33.1551 412.195 33.4497C412.949 33.7248 413.685 34.1374 414.402 34.6874C415.119 35.2375 415.72 35.9492 416.205 36.8226C416.713 37.6764 416.93 38.7419 416.858 40.019C416.799 41.062 416.542 42.0141 416.088 42.8752C415.633 43.7364 414.983 44.464 414.137 45.0582C413.314 45.6328 412.296 46.0526 411.084 46.3177C409.893 46.5845 408.521 46.6548 406.968 46.5286C405.713 46.4266 404.498 46.1675 403.325 45.7514C402.172 45.3584 401.156 44.7947 400.278 44.0605C399.422 43.3281 398.757 42.4294 398.282 41.3645C397.808 40.2995 397.621 39.0655 397.722 37.6624L402.573 38.0565ZM435.915 37.293C435.831 38.2694 435.431 39.05 434.716 39.6349C434.023 40.2222 433.177 40.4604 432.179 40.3496C431.181 40.2388 430.381 39.8179 429.78 39.0868C429.2 38.3581 428.952 37.5056 429.036 36.5292C429.122 35.5316 429.511 34.7498 430.203 34.1838C430.918 33.5989 431.774 33.3618 432.772 33.4726C433.77 33.5834 434.559 34.0032 435.139 34.7319C435.742 35.4417 436.001 36.2954 435.915 37.293ZM464.496 37.3425C464.477 36.7596 464.346 36.2148 464.103 35.7081C463.862 35.1802 463.54 34.7054 463.137 34.2837C462.734 33.862 462.257 33.5161 461.708 33.2458C461.182 32.9574 460.611 32.7703 459.998 32.6844C458.875 32.5276 457.897 32.6165 457.063 32.9512C456.231 33.2647 455.529 33.7575 454.957 34.4297C454.387 35.0807 453.932 35.8553 453.592 36.7533C453.273 37.6543 453.057 38.6018 452.942 39.5958C452.833 40.5476 452.832 41.493 452.939 42.432C453.07 43.3528 453.337 44.2068 453.741 44.994C454.146 45.7811 454.714 46.4515 455.446 47.0051C456.181 47.5376 457.109 47.8823 458.231 48.0391C459.756 48.2522 460.995 47.9526 461.949 47.1404C462.924 46.3311 463.594 45.1784 463.96 43.6823L468.787 44.357C468.497 45.7562 468.022 46.9899 467.361 48.058C466.7 49.1261 465.89 50.0014 464.929 50.6837C463.969 51.3661 462.882 51.8374 461.669 52.0976C460.456 52.3579 459.15 52.3903 457.753 52.195C456.017 51.9524 454.484 51.4373 453.155 50.6498C451.85 49.8441 450.781 48.846 449.95 47.6553C449.119 46.4647 448.531 45.1253 448.186 43.6373C447.843 42.1281 447.767 40.5486 447.957 38.8989C448.151 37.207 448.585 35.6774 449.259 34.3102C449.935 32.9219 450.811 31.755 451.888 30.8096C452.965 29.8641 454.227 29.1809 455.673 28.7599C457.141 28.3418 458.743 28.2542 460.479 28.4968C461.728 28.6714 462.883 29.0154 463.942 29.5288C465.023 30.0452 465.957 30.713 466.745 31.5323C467.556 32.3334 468.189 33.2815 468.644 34.3765C469.099 35.4716 469.325 36.6852 469.323 38.0172L464.496 37.3425ZM476.457 43.0461C476.323 43.994 476.297 44.9384 476.38 45.8793C476.487 46.8027 476.732 47.6628 477.116 48.4597C477.5 49.2567 478.051 49.9412 478.769 50.5134C479.49 51.0645 480.41 51.4331 481.528 51.619C482.647 51.805 483.626 51.7522 484.466 51.4607C485.31 51.1482 486.025 50.6741 486.612 50.0386C487.198 49.4031 487.66 48.6605 487.996 47.8108C488.357 46.9436 488.604 46.036 488.738 45.0881C488.878 44.098 488.898 43.1202 488.797 42.1547C488.717 41.1928 488.486 40.3133 488.102 39.5164C487.721 38.6984 487.17 38.0138 486.449 37.4627C485.731 36.8905 484.812 36.5114 483.694 36.3255C482.576 36.1395 481.595 36.2028 480.751 36.5154C479.911 36.8069 479.196 37.2809 478.606 37.9375C478.019 38.573 477.544 39.335 477.181 40.2232C476.839 41.115 476.597 42.056 476.457 43.0461ZM471.488 42.2198C471.727 40.5345 472.201 39.0178 472.91 37.6695C473.622 36.3002 474.529 35.1573 475.631 34.2409C476.732 33.3244 478.012 32.6748 479.47 32.292C480.95 31.9126 482.554 31.8668 484.285 32.1545C486.036 32.4457 487.554 33.0108 488.839 33.8498C490.124 34.6887 491.166 35.7243 491.963 36.9566C492.76 38.1888 493.309 39.5738 493.61 41.1115C493.914 42.6282 493.946 44.2291 493.707 45.9143C493.475 47.5575 493.004 49.0531 492.294 50.4014C491.588 51.7286 490.686 52.8399 489.587 53.7352C488.488 54.6306 487.21 55.2697 485.752 55.6526C484.297 56.0144 482.693 56.0496 480.942 55.7584C479.212 55.4707 477.692 54.9162 476.383 54.0948C475.098 53.2558 474.055 52.2307 473.255 51.0196C472.454 49.8084 471.901 48.455 471.594 46.9594C471.291 45.4428 471.255 43.8629 471.488 42.2198ZM499.024 35.2232L505.989 36.584L508.614 53.0474L508.677 53.0597L516.293 38.5974L523.257 39.9582L519.422 62.4037L514.79 61.4985L517.508 45.5918L517.445 45.5795L509.212 60.4087L505.399 59.6636L502.576 42.8365L502.513 42.8242L499.822 58.5738L495.19 57.6686L499.024 35.2232ZM527.925 40.9401L534.852 42.5016L537.002 59.0227L537.064 59.0368L545.101 44.8121L552.028 46.3737L547.543 68.6823L542.935 67.6436L546.114 51.8339L546.051 51.8197L537.387 66.393L533.595 65.538L531.257 48.648L531.194 48.6339L528.047 64.2874L523.44 63.2488L527.925 40.9401ZM572.384 66.0113C571.702 69.0137 570.352 71.0382 568.334 72.085C566.321 73.111 563.828 73.2503 560.856 72.5029C557.842 71.7449 555.669 70.4322 554.335 68.5646C553.023 66.7022 552.71 64.2595 553.397 61.2364L556.531 47.4461L561.426 48.6771L558.292 62.4674C558.155 63.0678 558.073 63.671 558.045 64.2769C558.018 64.8829 558.118 65.4554 558.347 65.9946C558.581 66.513 558.956 66.9904 559.472 67.4266C560.013 67.8474 560.783 68.1832 561.781 68.4341C563.527 68.8732 564.819 68.7933 565.658 68.1944C566.502 67.5748 567.113 66.4368 567.489 64.7803L570.624 50.99L575.518 52.221L572.384 66.0113ZM579.976 53.3971L584.813 54.731L590.33 72.0665L590.392 72.0836L594.115 57.2963L598.673 58.5533L593.124 80.5953L588.256 79.2528L582.762 61.9568L582.7 61.9397L578.984 76.6961L574.426 75.4391L579.976 53.3971ZM603.12 59.8158L607.968 61.2325L602.08 83.1782L597.231 81.7615L603.12 59.8158ZM616.079 68.0691L609.492 66.0587L610.63 62.0162L628.638 67.5118L627.5 71.5544L620.912 69.544L615.895 87.3678L611.063 85.8929L616.079 68.0691ZM633.026 83.497L628.993 67.6174L634.383 69.3641L636.917 79.6104L644.582 72.6688L649.942 74.4056L637.798 85.1769L635.291 93.5223L630.482 91.9642L633.026 83.497ZM663.625 91.0823C663.324 92.0095 662.758 92.6761 661.926 93.0821C661.115 93.4952 660.233 93.5359 659.279 93.2041C658.326 92.8724 657.637 92.2847 657.211 91.4411C656.806 90.6045 656.753 89.7227 657.054 88.7955C657.362 87.8482 657.918 87.1781 658.723 86.7851C659.555 86.3791 660.447 86.342 661.4 86.6737C662.354 87.0054 663.033 87.5896 663.438 88.4261C663.871 89.2496 663.933 90.135 663.625 91.0823ZM681.51 95.2665L686.312 97.0528C687.157 97.3674 687.922 97.4258 688.605 97.228C689.288 97.0303 689.787 96.4814 690.101 95.5814C690.276 95.0814 690.328 94.6378 690.259 94.2504C690.189 93.863 690.035 93.5231 689.796 93.2308C689.557 92.9384 689.246 92.6874 688.864 92.4776C688.51 92.2553 688.121 92.0655 687.698 91.9082L683.258 90.2567L681.51 95.2665ZM679.794 84.833L689.942 88.6078C690.969 88.9898 691.874 89.4281 692.657 89.9226C693.439 90.4172 694.06 90.9868 694.517 91.6315C694.982 92.2562 695.256 92.9684 695.341 93.7682C695.446 94.5755 695.324 95.4792 694.975 96.4791C694.598 97.5591 694.032 98.3654 693.277 98.8982C692.543 99.4384 691.612 99.7587 690.485 99.8592C691.681 100.734 692.434 101.77 692.743 102.97C693.08 104.157 693.014 105.421 692.546 106.761C692.169 107.841 691.63 108.702 690.928 109.345C690.233 109.967 689.435 110.394 688.536 110.624C687.657 110.862 686.712 110.929 685.702 110.824C684.712 110.727 683.734 110.499 682.768 110.139L672.317 106.252L679.794 84.833ZM678.337 104.356L683.411 106.244C683.874 106.416 684.331 106.541 684.782 106.618C685.239 106.675 685.664 106.664 686.056 106.584C686.455 106.483 686.808 106.287 687.115 105.994C687.442 105.709 687.703 105.287 687.899 104.727C688.283 103.627 688.243 102.731 687.779 102.039C687.322 101.327 686.581 100.779 685.554 100.398L680.389 98.4764L678.337 104.356ZM701.15 92.7986L705.877 94.6049L698.206 115.951L693.479 114.144L701.15 92.7986ZM710.149 96.2667L714.855 98.1294L711.568 106.937L723.218 101.439L729.094 103.765L717.599 108.846L721.974 125.331L716.069 122.993L713.189 110.891L709.48 112.531L706.926 119.375L702.22 117.512L710.149 96.2667ZM731.719 104.789L736.436 106.622L728.642 127.921L723.925 126.088L731.719 104.789ZM740.382 108.112L745.102 109.841L749.173 127.541L749.234 127.563L754.178 113.167L758.625 114.796L751.256 136.255L746.506 134.515L742.454 116.856L742.393 116.834L737.46 131.2L733.013 129.571L740.382 108.112ZM772.3 140.64C771.105 141.448 769.919 141.901 768.743 141.999C767.572 142.078 766.457 141.94 765.399 141.587C763.729 141.029 762.31 140.243 761.142 139.227C760.001 138.198 759.129 137.024 758.527 135.706C757.925 134.388 757.59 132.969 757.522 131.45C757.461 129.91 757.676 128.35 758.166 126.771C758.669 125.152 759.378 123.735 760.294 122.522C761.217 121.288 762.296 120.308 763.533 119.581C764.77 118.855 766.142 118.419 767.647 118.274C769.174 118.136 770.772 118.345 772.441 118.903C773.561 119.276 774.587 119.809 775.519 120.5C776.477 121.177 777.273 121.979 777.907 122.906C778.561 123.839 779.015 124.873 779.27 126.008C779.524 127.144 779.521 128.349 779.259 129.625L774.678 128.095C774.77 126.785 774.503 125.691 773.877 124.811C773.251 123.932 772.358 123.299 771.197 122.911C770.118 122.551 769.135 122.457 768.25 122.631C767.371 122.784 766.587 123.137 765.899 123.689C765.217 124.221 764.625 124.895 764.125 125.711C763.645 126.534 763.257 127.421 762.961 128.372C762.679 129.283 762.504 130.208 762.437 131.147C762.397 132.072 762.504 132.957 762.759 133.801C763.014 134.646 763.452 135.407 764.073 136.083C764.701 136.74 765.554 137.248 766.634 137.609C768.222 138.139 769.566 138.152 770.667 137.648C771.794 137.131 772.664 136.136 773.278 134.666L768.452 133.054L769.555 129.502L778.719 132.561L775.079 144.283L772.025 143.263L772.3 140.64ZM797.622 139.299C797.365 140.24 796.831 140.933 796.021 141.379C795.231 141.83 794.352 141.912 793.386 141.625C792.419 141.339 791.704 140.783 791.239 139.96C790.795 139.142 790.702 138.263 790.959 137.322C791.221 136.36 791.745 135.663 792.529 135.232C793.34 134.787 794.229 134.708 795.195 134.995C796.162 135.282 796.867 135.834 797.311 136.651C797.781 137.454 797.885 138.337 797.622 139.299ZM825.979 143.108C826.027 142.528 825.96 141.973 825.776 141.443C825.598 140.893 825.332 140.385 824.979 139.921C824.626 139.456 824.192 139.058 823.675 138.727C823.185 138.38 822.638 138.128 822.037 137.972C820.937 137.686 819.952 137.661 819.083 137.895C818.218 138.109 817.461 138.516 816.814 139.115C816.171 139.694 815.628 140.408 815.186 141.258C814.764 142.113 814.439 143.027 814.21 143.998C813.991 144.928 813.88 145.864 813.878 146.807C813.902 147.734 814.07 148.611 814.381 149.437C814.693 150.264 815.182 150.994 815.847 151.627C816.517 152.24 817.402 152.689 818.502 152.974C819.996 153.363 821.265 153.21 822.309 152.516C823.374 151.828 824.175 150.764 824.712 149.325L829.442 150.553C828.992 151.906 828.376 153.072 827.594 154.053C826.812 155.034 825.904 155.807 824.868 156.372C823.832 156.936 822.695 157.276 821.457 157.393C820.218 157.51 818.914 157.391 817.545 157.035C815.844 156.593 814.377 155.905 813.144 154.971C811.936 154.021 810.988 152.909 810.297 151.633C809.607 150.357 809.176 148.962 809.005 147.448C808.838 145.914 808.944 144.341 809.324 142.729C809.714 141.076 810.323 139.611 811.152 138.335C811.986 137.039 812.994 135.985 814.176 135.174C815.358 134.362 816.693 133.832 818.183 133.583C819.694 133.339 821.3 133.439 823.001 133.88C824.225 134.198 825.335 134.673 826.331 135.305C827.348 135.942 828.201 136.712 828.891 137.614C829.607 138.502 830.128 139.515 830.454 140.652C830.781 141.789 830.866 143.018 830.709 144.336L825.979 143.108ZM837.323 149.788C837.135 150.725 837.056 151.665 837.085 152.608C837.14 153.535 837.337 154.406 837.675 155.223C838.014 156.039 838.526 156.753 839.212 157.364C839.901 157.955 840.8 158.374 841.908 158.623C843.015 158.872 843.997 158.875 844.854 158.632C845.715 158.369 846.457 157.937 847.079 157.336C847.702 156.736 848.205 156.022 848.59 155.194C848.999 154.35 849.298 153.459 849.486 152.522C849.682 151.542 849.757 150.569 849.711 149.6C849.685 148.637 849.503 147.747 849.165 146.93C848.83 146.093 848.318 145.379 847.628 144.789C846.943 144.178 846.046 143.748 844.938 143.499C843.831 143.25 842.847 143.257 841.986 143.521C841.129 143.764 840.387 144.196 839.76 144.817C839.138 145.417 838.62 146.15 838.206 147.015C837.814 147.884 837.519 148.809 837.323 149.788ZM832.401 148.682C832.735 147.015 833.295 145.53 834.081 144.226C834.87 142.901 835.842 141.813 836.995 140.962C838.148 140.111 839.465 139.536 840.944 139.237C842.444 138.943 844.051 138.989 845.765 139.374C847.5 139.764 848.985 140.413 850.223 141.323C851.46 142.232 852.443 143.324 853.17 144.598C853.898 145.872 854.368 147.284 854.582 148.834C854.799 150.363 854.741 151.961 854.407 153.628C854.082 155.253 853.526 156.717 852.741 158.021C851.959 159.304 850.994 160.361 849.845 161.191C848.696 162.021 847.382 162.586 845.902 162.885C844.427 163.163 842.822 163.107 841.087 162.717C839.374 162.332 837.886 161.692 836.623 160.799C835.386 159.89 834.402 158.808 833.67 157.555C832.938 156.302 832.461 154.922 832.24 153.413C832.022 151.884 832.076 150.307 832.401 148.682ZM859.591 142.956L866.568 144.236L869.383 160.672L869.447 160.684L876.892 146.13L883.87 147.41L880.296 169.905L875.655 169.054L878.188 153.112L878.125 153.1L870.067 168.028L866.247 167.328L863.229 150.53L863.166 150.518L860.658 166.302L856.017 165.451L859.591 142.956ZM891.519 159.436L895.391 159.999C895.962 160.082 896.517 160.12 897.056 160.112C897.595 160.105 898.08 160.014 898.51 159.84C898.943 159.645 899.302 159.342 899.588 158.932C899.896 158.525 900.093 157.963 900.18 157.244C900.267 156.526 900.21 155.926 900.009 155.445C899.83 154.968 899.554 154.584 899.18 154.293C898.808 153.98 898.363 153.744 897.845 153.582C897.326 153.421 896.781 153.298 896.21 153.215L892.338 152.652L891.519 159.436ZM887.822 148.06L898.041 149.547C899.459 149.753 900.639 150.14 901.583 150.707C902.529 151.253 903.268 151.909 903.799 152.674C904.353 153.443 904.714 154.28 904.885 155.187C905.076 156.096 905.116 157.016 905.004 157.946C904.894 158.855 904.637 159.731 904.234 160.576C903.854 161.402 903.306 162.107 902.59 162.691C901.895 163.278 901.024 163.711 899.979 163.989C898.936 164.246 897.706 164.271 896.288 164.065L891.052 163.303L890.072 171.418L885.089 170.693L887.822 148.06ZM926.694 167.281C926.431 170.359 925.374 172.556 923.525 173.873C921.678 175.169 919.236 175.65 916.2 175.315C913.121 174.975 910.796 173.968 909.225 172.295C907.675 170.623 907.032 168.238 907.298 165.139L908.508 151.002L913.509 151.554L912.298 165.691C912.245 166.307 912.247 166.918 912.302 167.524C912.357 168.13 912.535 168.685 912.834 169.19C913.136 169.673 913.571 170.096 914.14 170.459C914.732 170.803 915.538 171.031 916.557 171.144C918.341 171.34 919.606 171.084 920.353 170.373C921.101 169.642 921.548 168.427 921.694 166.729L922.904 152.592L927.905 153.144L926.694 167.281ZM936.649 158.102L929.817 157.588L930.03 153.371L948.706 154.778L948.493 158.995L941.661 158.48L940.721 177.071L935.709 176.693L936.649 158.102ZM950.965 154.882L968.032 155.611L967.956 159.836L955.907 159.321L955.819 164.218L966.877 164.69L966.807 168.595L955.748 168.122L955.648 173.723L967.953 174.249L967.877 178.473L950.554 177.733L950.965 154.882ZM976.481 166.059L981.979 166.097C983.129 166.105 983.988 165.854 984.554 165.346C985.12 164.837 985.393 164.006 985.373 162.853C985.353 161.743 985.051 160.94 984.467 160.445C983.883 159.928 983.015 159.666 981.865 159.658L976.367 159.62L976.481 166.059ZM971.28 155.678L983.585 155.762C984.608 155.769 985.527 155.947 986.343 156.294C987.18 156.62 987.891 157.073 988.476 157.654C989.083 158.234 989.542 158.91 989.854 159.681C990.187 160.431 990.361 161.243 990.377 162.119C990.401 163.464 990.134 164.626 989.576 165.604C989.039 166.583 988.136 167.324 986.867 167.828L986.868 167.892C987.489 168.067 988.005 168.337 988.416 168.703C988.827 169.048 989.165 169.466 989.429 169.959C989.693 170.431 989.884 170.955 990 171.533C990.139 172.11 990.234 172.687 990.287 173.264C990.315 173.627 990.343 174.055 990.373 174.546C990.403 175.037 990.444 175.539 990.496 176.052C990.569 176.565 990.663 177.057 990.778 177.527C990.914 177.977 991.102 178.362 991.342 178.684L986.324 178.65C986.034 177.922 985.848 177.056 985.766 176.052C985.685 175.048 985.572 174.086 985.428 173.167C985.236 171.97 984.858 171.092 984.294 170.533C983.731 169.974 982.82 169.69 981.563 169.681L976.545 169.647L976.703 178.584L971.685 178.549L971.28 155.678ZM1007.11 170.647C1007.16 171.415 1007.35 172.059 1007.66 172.58C1007.98 173.101 1008.37 173.521 1008.84 173.842C1009.33 174.141 1009.89 174.361 1010.52 174.503C1011.14 174.624 1011.79 174.67 1012.45 174.64C1012.89 174.619 1013.37 174.565 1013.87 174.478C1014.38 174.369 1014.85 174.198 1015.28 173.964C1015.71 173.73 1016.06 173.425 1016.33 173.048C1016.6 172.651 1016.72 172.164 1016.68 171.588C1016.63 170.969 1016.4 170.477 1015.97 170.112C1015.56 169.745 1015.02 169.449 1014.37 169.222C1013.71 168.995 1012.97 168.805 1012.15 168.65C1011.33 168.495 1010.5 168.319 1009.65 168.122C1008.79 167.948 1007.94 167.73 1007.11 167.469C1006.28 167.186 1005.53 166.814 1004.86 166.352C1004.19 165.891 1003.62 165.307 1003.17 164.6C1002.73 163.871 1002.48 162.984 1002.4 161.938C1002.32 160.765 1002.5 159.74 1002.92 158.865C1003.37 157.967 1003.98 157.211 1004.75 156.598C1005.52 155.985 1006.4 155.516 1007.4 155.192C1008.4 154.868 1009.41 154.682 1010.43 154.635C1011.62 154.581 1012.77 154.667 1013.87 154.895C1015 155.1 1016.01 155.482 1016.9 156.04C1017.79 156.598 1018.51 157.335 1019.07 158.252C1019.64 159.146 1019.98 160.254 1020.07 161.576L1015.22 161.799C1015.13 161.118 1014.94 160.56 1014.66 160.124C1014.39 159.686 1014.05 159.349 1013.63 159.112C1013.2 158.874 1012.72 158.714 1012.19 158.632C1011.67 158.549 1011.1 158.521 1010.48 158.55C1010.08 158.568 1009.68 158.629 1009.28 158.733C1008.88 158.837 1008.52 159.004 1008.2 159.232C1007.89 159.46 1007.65 159.739 1007.46 160.069C1007.27 160.399 1007.19 160.809 1007.22 161.3C1007.25 161.748 1007.36 162.107 1007.55 162.376C1007.74 162.646 1008.09 162.886 1008.6 163.099C1009.12 163.31 1009.83 163.513 1010.72 163.707C1011.63 163.901 1012.81 164.147 1014.26 164.444C1014.69 164.51 1015.28 164.643 1016.04 164.843C1016.82 165.021 1017.6 165.339 1018.38 165.795C1019.16 166.252 1019.85 166.884 1020.44 167.691C1021.04 168.477 1021.39 169.509 1021.48 170.789C1021.56 171.835 1021.42 172.815 1021.08 173.729C1020.74 174.644 1020.19 175.45 1019.43 176.149C1018.69 176.825 1017.73 177.372 1016.57 177.789C1015.43 178.205 1014.08 178.449 1012.53 178.52C1011.27 178.578 1010.04 178.474 1008.83 178.209C1007.64 177.964 1006.56 177.532 1005.6 176.912C1004.66 176.292 1003.89 175.482 1003.29 174.482C1002.68 173.483 1002.34 172.278 1002.26 170.87L1007.11 170.647ZM1038.84 160.898C1038.7 160.33 1038.45 159.825 1038.1 159.383C1037.75 158.919 1037.33 158.525 1036.85 158.201C1036.36 157.877 1035.83 157.644 1035.23 157.502C1034.66 157.336 1034.06 157.279 1033.45 157.332C1032.33 157.428 1031.4 157.733 1030.66 158.247C1029.93 158.74 1029.36 159.379 1028.95 160.166C1028.54 160.931 1028.27 161.791 1028.14 162.748C1028.03 163.702 1028.03 164.679 1028.14 165.679C1028.25 166.637 1028.46 167.564 1028.77 168.461C1029.1 169.335 1029.55 170.112 1030.11 170.794C1030.68 171.476 1031.38 172.007 1032.21 172.387C1033.04 172.745 1034.02 172.876 1035.14 172.78C1036.67 172.65 1037.8 172.08 1038.55 171.071C1039.31 170.061 1039.71 168.781 1039.73 167.233L1044.56 166.82C1044.59 168.256 1044.4 169.572 1044 170.766C1043.59 171.961 1043 172.999 1042.22 173.882C1041.44 174.765 1040.49 175.469 1039.38 175.994C1038.26 176.52 1037 176.842 1035.6 176.962C1033.86 177.11 1032.26 176.946 1030.8 176.47C1029.36 175.971 1028.1 175.23 1027.03 174.248C1025.96 173.265 1025.09 172.083 1024.43 170.701C1023.76 169.297 1023.34 167.766 1023.15 166.106C1022.97 164.404 1023.05 162.807 1023.4 161.317C1023.75 159.805 1024.34 158.466 1025.17 157.299C1026.01 156.133 1027.08 155.182 1028.39 154.447C1029.72 153.71 1031.25 153.267 1032.99 153.119C1034.24 153.012 1035.43 153.092 1036.58 153.36C1037.74 153.625 1038.79 154.072 1039.74 154.7C1040.7 155.305 1041.53 156.093 1042.21 157.066C1042.89 158.038 1043.38 159.178 1043.67 160.484L1038.84 160.898ZM1046.1 152.487L1051.08 151.919L1054.21 174.645L1049.24 175.212L1046.1 152.487ZM1055.13 151.4L1071.97 149.02L1072.66 153.207L1060.78 154.888L1061.57 159.741L1072.49 158.199L1073.12 162.069L1062.21 163.611L1063.13 169.163L1075.27 167.447L1075.96 171.634L1058.87 174.05L1055.13 151.4ZM1075.14 148.496L1080.02 147.613L1092.43 161.028L1092.5 161.016L1089.42 145.914L1094.02 145.081L1098.61 167.593L1093.69 168.482L1081.32 155.093L1081.26 155.104L1084.33 170.175L1079.73 171.008L1075.14 148.496ZM1114.47 148.466C1114.25 147.922 1113.94 147.453 1113.53 147.061C1113.13 146.647 1112.66 146.312 1112.14 146.056C1111.62 145.8 1111.05 145.641 1110.45 145.58C1109.86 145.493 1109.26 145.517 1108.66 145.653C1107.57 145.901 1106.69 146.33 1106.04 146.941C1105.38 147.531 1104.9 148.244 1104.6 149.081C1104.3 149.897 1104.15 150.789 1104.15 151.757C1104.18 152.721 1104.31 153.692 1104.55 154.672C1104.78 155.609 1105.11 156.503 1105.54 157.352C1105.99 158.176 1106.54 158.888 1107.19 159.489C1107.84 160.09 1108.6 160.523 1109.48 160.787C1110.34 161.031 1111.33 161.029 1112.42 160.781C1113.91 160.444 1114.95 159.724 1115.55 158.62C1116.17 157.512 1116.39 156.186 1116.2 154.644L1120.92 153.577C1121.14 155.002 1121.13 156.335 1120.9 157.577C1120.66 158.819 1120.21 159.932 1119.56 160.915C1118.91 161.899 1118.07 162.728 1117.04 163.402C1116 164.076 1114.8 164.567 1113.44 164.876C1111.74 165.259 1110.14 165.313 1108.63 165.039C1107.14 164.738 1105.8 164.172 1104.61 163.341C1103.42 162.51 1102.4 161.452 1101.56 160.168C1100.71 158.863 1100.09 157.398 1099.68 155.773C1099.27 154.106 1099.13 152.508 1099.28 150.979C1099.42 149.429 1099.82 148.017 1100.49 146.744C1101.15 145.471 1102.08 144.38 1103.28 143.472C1104.49 142.559 1105.94 141.911 1107.64 141.527C1108.86 141.251 1110.05 141.169 1111.21 141.28C1112.4 141.386 1113.5 141.688 1114.52 142.183C1115.55 142.654 1116.47 143.326 1117.28 144.2C1118.08 145.074 1118.72 146.14 1119.19 147.4L1114.47 148.466ZM1120.39 139.126L1136.78 134.752L1137.96 138.84L1126.39 141.928L1127.76 146.666L1138.38 143.832L1139.47 147.611L1128.85 150.444L1130.41 155.864L1142.23 152.711L1143.41 156.799L1126.77 161.238L1120.39 139.126ZM1158.52 140.177C1158.83 141.115 1158.78 141.998 1158.37 142.827C1157.98 143.649 1157.3 144.209 1156.35 144.506C1155.41 144.804 1154.51 144.734 1153.68 144.298C1152.86 143.856 1152.29 143.166 1151.98 142.227C1151.66 141.269 1151.7 140.389 1152.1 139.587C1152.52 138.758 1153.2 138.195 1154.15 137.898C1155.1 137.6 1155.98 137.673 1156.8 138.115C1157.63 138.531 1158.2 139.218 1158.52 140.177ZM1178.15 141.123L1182.32 139.595C1182.99 139.348 1183.61 138.998 1184.16 138.544C1184.71 138.09 1185.13 137.521 1185.43 136.838C1185.73 136.134 1185.87 135.316 1185.85 134.383C1185.83 133.451 1185.59 132.392 1185.13 131.208C1184.71 130.124 1184.23 129.19 1183.67 128.406C1183.14 127.596 1182.51 126.967 1181.79 126.519C1181.07 126.071 1180.26 125.832 1179.34 125.802C1178.43 125.744 1177.4 125.926 1176.25 126.348L1172.92 127.57L1178.15 141.123ZM1166.71 125.308L1175.88 121.947C1177.25 121.445 1178.6 121.2 1179.95 121.213C1181.31 121.218 1182.59 121.506 1183.78 122.077C1185 122.64 1186.1 123.497 1187.08 124.647C1188.09 125.791 1188.94 127.256 1189.63 129.043C1190.24 130.609 1190.59 132.127 1190.71 133.598C1190.82 135.069 1190.66 136.435 1190.22 137.697C1189.8 138.952 1189.09 140.082 1188.09 141.088C1187.11 142.067 1185.81 142.854 1184.18 143.451L1175.01 146.812L1166.71 125.308ZM1188.36 117.294L1204.03 110.885L1205.7 114.805L1194.64 119.33L1196.59 123.874L1206.74 119.721L1208.29 123.345L1198.14 127.498L1200.36 132.695L1211.65 128.074L1213.33 131.995L1197.43 138.5L1188.36 117.294ZM1216.62 122.161C1216.95 122.863 1217.35 123.402 1217.83 123.777C1218.31 124.152 1218.83 124.404 1219.38 124.533C1219.94 124.635 1220.53 124.638 1221.17 124.542C1221.79 124.427 1222.4 124.234 1222.99 123.965C1223.4 123.783 1223.82 123.558 1224.25 123.291C1224.68 123.004 1225.05 122.672 1225.36 122.295C1225.67 121.917 1225.89 121.502 1226 121.049C1226.1 120.576 1226.03 120.076 1225.79 119.549C1225.52 118.983 1225.12 118.608 1224.59 118.421C1224.08 118.227 1223.48 118.143 1222.8 118.169C1222.11 118.196 1221.36 118.286 1220.54 118.441C1219.73 118.595 1218.9 118.734 1218.05 118.859C1217.19 119.011 1216.32 119.116 1215.47 119.173C1214.6 119.21 1213.77 119.135 1212.98 118.947C1212.19 118.759 1211.46 118.416 1210.78 117.917C1210.12 117.391 1209.56 116.65 1209.11 115.694C1208.61 114.621 1208.4 113.594 1208.47 112.614C1208.56 111.606 1208.85 110.673 1209.33 109.816C1209.81 108.959 1210.46 108.196 1211.26 107.525C1212.07 106.854 1212.93 106.311 1213.86 105.894C1214.94 105.407 1216.03 105.069 1217.13 104.88C1218.24 104.662 1219.3 104.653 1220.33 104.851C1221.36 105.05 1222.29 105.479 1223.14 106.138C1223.99 106.768 1224.7 107.688 1225.27 108.897L1220.88 110.878C1220.55 110.271 1220.17 109.815 1219.75 109.51C1219.35 109.195 1218.91 109.004 1218.43 108.935C1217.96 108.866 1217.46 108.891 1216.93 109.011C1216.42 109.122 1215.89 109.303 1215.33 109.555C1214.96 109.72 1214.62 109.924 1214.29 110.167C1213.96 110.41 1213.69 110.699 1213.47 111.033C1213.27 111.358 1213.15 111.711 1213.09 112.09C1213.03 112.47 1213.11 112.884 1213.32 113.333C1213.51 113.742 1213.75 114.039 1214.02 114.223C1214.29 114.408 1214.7 114.507 1215.24 114.522C1215.81 114.528 1216.53 114.46 1217.42 114.319C1218.33 114.168 1219.51 113.968 1220.95 113.718C1221.38 113.622 1221.97 113.529 1222.75 113.44C1223.53 113.322 1224.37 113.336 1225.25 113.48C1226.13 113.625 1227 113.969 1227.83 114.513C1228.68 115.028 1229.38 115.871 1229.93 117.042C1230.38 117.998 1230.61 118.968 1230.63 119.952C1230.65 120.937 1230.43 121.896 1229.98 122.831C1229.55 123.738 1228.87 124.6 1227.94 125.419C1227.04 126.228 1225.89 126.95 1224.48 127.584C1223.34 128.097 1222.17 128.45 1220.95 128.644C1219.77 128.848 1218.62 128.835 1217.51 128.604C1216.42 128.364 1215.41 127.884 1214.49 127.165C1213.57 126.446 1212.82 125.438 1212.23 124.142L1216.62 122.161ZM1225.46 101.203L1229.94 99.0445L1240.24 119.702L1235.76 121.861L1225.46 101.203ZM1257.7 107.819C1257.46 109.254 1256.97 110.427 1256.24 111.339C1255.5 112.232 1254.64 112.931 1253.66 113.434C1252.12 114.227 1250.59 114.676 1249.07 114.781C1247.56 114.858 1246.13 114.638 1244.78 114.121C1243.43 113.605 1242.19 112.825 1241.06 111.781C1239.92 110.719 1238.96 109.445 1238.17 107.96C1237.36 106.437 1236.84 104.912 1236.6 103.385C1236.35 101.839 1236.39 100.363 1236.72 98.9566C1237.05 97.5503 1237.67 96.2567 1238.6 95.0758C1239.54 93.8852 1240.79 92.8933 1242.32 92.1001C1243.36 91.5681 1244.44 91.2172 1245.56 91.0475C1246.7 90.8491 1247.82 90.8563 1248.91 91.0689C1250.02 91.2719 1251.07 91.6902 1252.05 92.3239C1253.03 92.9576 1253.89 93.8261 1254.62 94.9294L1250.4 97.1059C1249.53 96.099 1248.57 95.5034 1247.51 95.3192C1246.46 95.1349 1245.4 95.3185 1244.33 95.8699C1243.33 96.3825 1242.6 97.0178 1242.11 97.7755C1241.62 98.5142 1241.34 99.328 1241.26 100.217C1241.17 101.087 1241.25 101.994 1241.49 102.938C1241.75 103.872 1242.11 104.787 1242.59 105.682C1243.04 106.538 1243.58 107.328 1244.2 108.05C1244.84 108.743 1245.54 109.302 1246.31 109.727C1247.09 110.152 1247.93 110.385 1248.84 110.427C1249.73 110.45 1250.68 110.205 1251.67 109.692C1253.14 108.938 1254.06 107.986 1254.46 106.837C1254.86 105.66 1254.75 104.323 1254.12 102.828L1249.67 105.12L1247.9 101.779L1256.34 97.4258L1262.2 108.45L1259.38 109.901L1257.7 107.819ZM1254.5 86.3514L1258.8 83.9179L1274.78 92.6712L1274.84 92.64L1267.05 79.2381L1271.1 76.945L1282.7 96.9219L1278.38 99.371L1262.44 90.6301L1262.38 90.6613L1270.15 104.035L1266.1 106.328L1254.5 86.3514ZM1294.05 76.5104C1294.58 77.3492 1294.75 78.2235 1294.55 79.1334C1294.37 80.0321 1293.86 80.7428 1293.02 81.2652C1292.17 81.7877 1291.3 81.9386 1290.38 81.718C1289.49 81.4862 1288.78 80.951 1288.25 80.1122C1287.7 79.2552 1287.53 78.3864 1287.72 77.5059C1287.92 76.596 1288.44 75.8798 1289.28 75.3574C1290.12 74.8349 1290.99 74.6895 1291.88 74.9213C1292.79 75.1237 1293.51 75.6534 1294.05 76.5104Z" fill="white"/>
</svg>
